<svg width="533" height="533" viewBox="0 0 533 533" fill="none" xmlns="http://www.w3.org/2000/svg">
<rect width="533" height="533" rx="140" fill="#00005B"/>
<path d="M229.04 302.063H162.934L149.484 343.923C149.311 344.64 148.908 345.281 148.336 345.747C147.763 346.213 147.054 346.477 146.316 346.5L112.57 346.499C110.66 346.499 109.992 345.449 110.567 343.349L167.8 179.2L168.372 177.476L168.562 176.886L168.945 175.653C169.135 175.016 169.325 174.341 169.517 173.61C170.266 169.792 170.65 165.911 170.661 162.021C170.623 161.749 170.648 161.471 170.735 161.211C170.822 160.95 170.968 160.713 171.162 160.519C171.357 160.325 171.594 160.178 171.854 160.091C172.115 160.004 172.392 159.979 172.664 160.018H218.165C219.498 160.018 220.26 160.494 220.455 161.449L285.413 343.638C285.985 345.546 285.413 346.5 283.697 346.499H246.494C245.856 346.57 245.213 346.405 244.686 346.037C244.16 345.668 243.785 345.12 243.633 344.496L229.04 302.063ZM173.237 266.768H218.452L217.807 264.64L216.772 261.271L215.257 256.445L212.35 247.335L209.58 238.58L204.428 222.269C203.004 217.766 201.638 213.245 200.329 208.708L198.866 203.549L197.286 197.895L195.843 192.651H195.556C194.125 199.52 192.381 206.32 190.331 213.03L188.398 219.234L183.749 234.231L181.392 241.871C180.966 243.251 180.543 244.616 180.118 245.964L178.851 249.96L177.592 253.862L176.338 257.668L175.092 261.379C174.472 263.212 173.852 265.007 173.237 266.768ZM390.724 285.771H334.35C335.041 291.348 336.893 296.719 339.788 301.536C342.987 306.307 347.513 310.037 352.807 312.267C359.981 315.372 367.741 316.893 375.557 316.726C381.758 316.608 387.936 315.929 394.015 314.7C399.452 313.966 404.78 312.578 409.884 310.564C410.837 309.804 411.317 310.278 411.317 311.994V339.18C411.363 339.922 411.215 340.662 410.885 341.326C410.558 341.846 410.119 342.286 409.599 342.615C403.937 345.122 397.979 346.897 391.869 347.897C383.568 349.455 375.131 350.174 366.686 350.041C353.561 350.041 342.499 348.072 333.497 344.134L332.631 343.746C323.977 339.934 316.335 334.152 310.312 326.863C304.685 319.994 300.5 312.062 298.006 303.541C295.537 295.13 294.285 286.408 294.288 277.642C294.262 268.071 295.76 258.556 298.724 249.455C301.579 240.578 306.094 232.323 312.03 225.131C317.884 218.023 325.205 212.263 333.492 208.246C341.885 204.147 351.807 202.676 363.253 202.676C372.746 202.436 382.175 204.292 390.869 208.113C398.179 211.231 404.614 216.091 409.612 222.269C414.3 228.318 417.884 235.148 420.2 242.443C422.455 249.473 423.613 256.809 423.634 264.192C423.634 268.391 423.491 272.207 423.206 275.64L422.951 278.579L422.684 281.368L422.526 282.781C422.514 282.881 422.502 282.98 422.489 283.08C422.415 283.71 422.112 284.292 421.637 284.714C421.163 285.136 420.55 285.369 419.915 285.369L419.13 285.386L418.152 285.436L417.39 285.491L415.611 285.643L414.048 285.798C413.623 285.843 413.181 285.884 412.723 285.923L411.305 286.034L409.79 286.134L408.182 286.217L406.479 286.289L405.591 286.319L403.746 286.369C401.922 286.414 400.052 286.301 398.134 286.161L395.225 285.948C393.728 285.838 392.225 285.779 390.724 285.771ZM334.352 259.701H373.321L376.64 259.679L378.896 259.648L380.358 259.614L381.997 259.558C383.465 259.411 384.882 258.942 386.147 258.183V256.467C386.089 254.229 385.704 252.011 385.004 249.885C383.46 245.002 380.356 240.762 376.168 237.815C371.981 234.868 366.942 233.377 361.825 233.571C357.009 233.28 352.212 234.397 348.019 236.785C343.827 239.174 340.42 242.73 338.215 247.022C336.254 251.014 334.95 255.294 334.352 259.701Z" fill="#9999FF"/>
</svg>
