<svg width="533" height="533" viewBox="0 0 533 533" fill="none" xmlns="http://www.w3.org/2000/svg">
<rect width="533" height="533" rx="140" fill="#0F295F"/>
<path d="M110.904 258.202H142.284V266.985L130.455 267.906C111.4 269.323 105.449 274.353 105.449 288.52V291.353C105.449 301.696 112.675 307.929 123.867 307.929C132.651 307.929 137.751 305.875 143.985 299.5H145.047V306.229H157.656V244.388H110.904V258.202ZM142.284 288.024C138.388 291.92 132.58 294.47 127.763 294.47C122.592 294.47 120.396 292.558 120.537 288.237C120.679 282.286 122.875 280.87 132.863 279.949L142.355 279.028V288.024H142.284Z" fill="#F18618"/>
<path fill-rule="evenodd" clip-rule="evenodd" d="M184.005 244.459H208.231V257.068H221.478V306.3H206.035V258.343H184.005V306.3H168.562V225.9H184.005V244.459ZM409.55 269.394L400.199 268.473C395.028 267.977 393.753 266.631 393.753 262.523C393.753 257.847 395.595 256.714 402.82 256.714C409.266 256.714 411.108 257.777 412.029 262.169H426.551C426.196 247.364 421.592 243.609 403.599 243.609C383.907 243.609 378.948 247.364 378.948 262.523C378.948 276.407 382.561 280.161 397.224 281.578L404.875 282.286C411.746 282.924 413.446 284.199 413.446 288.378C413.446 293.408 411.391 294.754 402.962 294.754C395.595 294.754 393.611 293.62 393.257 288.803H378.594C378.948 304.104 383.623 308 402.324 308C423.08 308 428.251 303.821 428.251 286.961C428.251 274.423 424.496 270.811 409.55 269.394ZM330.142 270.527C330.142 250.551 323.27 243.538 303.578 243.538C284.098 243.538 276.518 252.606 276.518 275.203C276.518 299.854 283.248 308 305.065 308C320.72 308 327.379 303.183 329.575 289.724H314.699C312.999 293.903 311.228 294.824 304.853 294.824C295.29 294.824 292.81 292.133 292.244 280.586H329.221C329.787 277.186 330.071 273.857 330.142 270.527ZM292.315 268.331C292.456 259.618 295.927 256.431 304.215 256.431C312.149 256.431 315.337 259.689 315.62 268.331H292.315ZM339.138 247.222V306.371H354.58V257.777H373.14V244.53H354.58V242.83C354.722 239.217 355.643 238.155 358.618 238.155H375.477V225.971H357.343C344.946 225.9 339.138 229.725 339.138 247.222ZM248.183 306.3H232.741V244.459H271.134V258.981H248.183V306.3Z" fill="white"/>
</svg>
