<svg width="533" height="533" viewBox="0 0 533 533" fill="none" xmlns="http://www.w3.org/2000/svg">
<rect width="533" height="533" rx="140" fill="black"/>
<path fill-rule="evenodd" clip-rule="evenodd" d="M267.25 438.5C301.318 438.5 334.621 428.398 362.947 409.471C391.273 390.544 413.351 363.642 426.388 332.167C439.425 300.693 442.837 266.059 436.19 232.646C429.544 199.233 413.139 168.541 389.049 144.451C364.96 120.361 334.268 103.956 300.854 97.3098C267.441 90.6635 232.807 94.0747 201.333 107.112C169.858 120.149 142.956 142.227 124.029 170.553C105.102 198.879 95 232.182 95 266.25C95 311.934 113.148 355.746 145.451 388.049C177.754 420.352 221.566 438.5 267.25 438.5Z" fill="#007CC2"/>
<path fill-rule="evenodd" clip-rule="evenodd" d="M267.964 405.84C295.414 405.84 322.246 397.7 345.069 382.449C367.892 367.199 385.68 345.523 396.183 320.163C406.687 294.802 409.434 266.897 404.077 239.975C398.72 213.054 385.5 188.326 366.089 168.918C346.677 149.51 321.947 136.294 295.024 130.942C268.102 125.59 240.197 128.342 214.838 138.849C189.48 149.357 167.807 167.149 152.56 189.975C137.314 212.8 129.179 239.634 129.184 267.084C129.184 285.307 132.773 303.353 139.748 320.189C146.723 337.025 156.946 352.323 169.833 365.208C182.72 378.093 198.02 388.313 214.857 395.285C231.695 402.256 249.741 405.843 267.964 405.84Z" fill="black"/>
<path fill-rule="evenodd" clip-rule="evenodd" d="M362.12 306.045C361.728 327.157 358.197 363.936 330.024 363.936C301.851 363.936 298.737 343.977 297.952 320.193H297.168C283.461 346.012 261.565 364.01 230.646 364.01C205.612 364.01 183.299 346.846 183.299 320.586C183.299 271.669 255.681 260.709 297.56 245.458V224.567C297.56 194.849 290.891 176.852 257.25 176.852C245.922 176.852 224.786 179.966 219.686 190.141C231.431 193.672 239.302 202.279 239.302 214.784C239.302 228.882 228.341 238.666 214.267 238.666C201.738 238.666 191.562 225.351 191.562 212.454C191.562 183.889 226.012 165.867 260.437 165.867C291.332 165.867 328.111 175.258 328.111 209.291V312.592C328.111 331.766 328.111 340.373 337.502 340.373C351.209 340.373 351.993 314.137 352.778 306.045H362.12ZM297.56 257.913C270.589 266.912 220.078 284.125 220.078 318.943C220.019 325.573 222.574 331.961 227.191 336.72C231.809 341.48 238.115 344.228 244.745 344.369C276.424 344.369 297.56 317.766 297.56 277.872V257.913Z" fill="white"/>
</svg>
