<svg width="533" height="533" viewBox="0 0 533 533" fill="none" xmlns="http://www.w3.org/2000/svg">
<rect width="533" height="533" rx="140" fill="#00C4CC"/>
<path d="M177.266 184.206C182.057 185.65 184.297 187.002 187.545 190.246C193.861 196.655 195.305 200.166 195.305 209.809C195.305 217.032 195.031 218.38 192.871 222.163C188.714 229.192 179.069 235.686 172.397 235.862C167.701 235.961 167.895 233.883 173.031 228.477C179.883 221.353 180.873 218.652 180.873 208.006C180.788 197.733 179.524 194.222 174.747 191.334C170.773 188.9 166.451 189.08 160.135 192.049C143.719 199.902 125.954 226.044 119.017 252.826C109.812 288.526 126.133 317.098 153.008 312.227C160.85 310.783 175.642 303.219 182.057 297.26C187.36 292.412 187.369 292.309 187.901 286.303L187.904 286.272C189.088 273.64 198.004 261.025 209.921 255.165C215.41 252.453 216.773 252.192 224.164 252.192C231.195 252.192 232.819 252.552 236.247 254.436C247.156 260.669 244.902 275.179 233.094 275.179C226.242 275.179 222.719 271.657 227.686 269.776C232.558 267.973 230.741 261.205 225.073 259.676C218.397 257.958 210.816 262.469 206.039 271.122C200.262 281.581 199.998 294.027 205.49 299.697C210.816 305.377 217.488 300.88 222.635 287.973C225.333 281.398 229.212 277.876 233.728 277.876C237.691 277.876 238.42 280.313 236.697 287.712C234.168 299.158 235.887 302.13 243.014 298.623C245.353 297.535 249.235 295.02 251.574 293.217L255.991 289.695L258.979 274.094C262.227 256.609 263.477 254.256 270.153 253.006C276.564 251.823 278.009 254.985 275.655 264.987L274.387 270.586L279.083 265.797C290.172 254.436 303.795 248.85 308.487 253.541C311.006 256.059 310.731 259.222 307.127 270.393C305.419 275.718 303.066 284.11 301.995 288.882C300.371 296.091 300.272 297.809 301.185 298.982C304.073 302.405 312.905 298.883 320.75 291.22L325.347 286.723L325.896 276.707C326.432 265.166 327.506 261.025 330.575 257.324C333.463 253.9 338.694 251.382 341.488 252.097C344.282 252.826 344.282 255.524 341.763 263.462C338.24 274.369 338.61 299.517 342.217 299.517C343.662 299.517 351.049 291.769 355.744 285.279L359.253 280.489L356.46 277.616C351.588 272.474 350.418 269.142 350.418 260.75C350.418 254.629 350.873 252.372 352.398 249.386C354.931 244.709 358.894 241.286 363.586 239.923C368.539 238.394 374.676 240.912 377.194 245.424C379.727 250.02 379.097 260.296 375.845 267.339L373.506 272.471H376.659C380.992 272.471 382.7 271.396 390.461 264.092C394.519 260.215 399.211 256.873 402.72 255.249C416.522 248.769 432.762 252.097 435.457 262.015C437.711 269.952 432.762 275.538 424.092 274.904C417.871 274.453 416.702 272.826 420.309 269.776C426.801 264.353 420.309 257.422 411.02 259.94C405.968 261.3 400.286 266.97 397.316 273.559C391.356 286.723 394.519 302.225 403.079 302.225C406.507 302.225 412.559 295.46 414.898 288.882C417.692 281.303 423.553 276.531 427.971 278.246C430.409 279.144 430.588 281.578 429.059 289.241C427.34 297.633 427.076 305.476 428.425 309.079C428.964 310.424 430.588 312.956 432.128 314.664C435.002 317.908 435.101 319.08 432.663 320.619C431.494 321.429 429.951 321.074 426.171 318.999C420.94 316.288 416.427 311.417 414.803 306.821L413.813 304.124L410.206 306.821C408.127 308.265 404.883 309.889 402.995 310.424C395.509 312.407 386.304 307.276 381.985 298.623C380.263 295.277 379.727 285.459 380.992 281.673C381.711 279.595 381.71 279.595 378.818 281.039C377.293 281.852 374.045 282.747 371.526 283.022C367.369 283.479 366.735 283.93 362.596 289.156C356.734 296.446 346.356 306.286 342.119 308.364C333.107 312.861 330.134 311.597 327.781 302.306L326.157 296.091L322.275 299.517C317.322 303.849 307.402 309.079 301.716 310.343C296.309 311.512 290.532 309.794 288.189 306.187C284.684 300.782 285.854 289.336 291.437 273.914C295.58 262.469 292.61 262.293 282.151 273.199C274.391 281.398 271.058 287.258 268.899 296.365C266.644 305.832 263.932 309.255 257.809 310.699C254.107 311.512 252.384 309.255 253.117 304.303L253.652 300.327L250.225 302.68C245.353 306.011 239.216 309.079 234.978 310.248C230.741 311.417 225.154 310.163 223.804 307.811C221.37 303.673 221.37 303.673 217.587 306.642C209.372 313.315 197.648 311.417 191.702 302.585L189.799 299.792L183.857 305.293C166.712 320.979 145.258 328.008 129.381 323.137C109.178 317.017 98.0043 299.697 98.1839 274.728C98.2685 249.664 109.358 223.251 128.032 203.688C138.586 192.683 148.506 186.189 158.609 183.755C165.901 181.952 170.333 182.043 177.266 184.206Z" fill="white"/>
</svg>
