<svg width="533" height="533" viewBox="0 0 533 533" fill="none" xmlns="http://www.w3.org/2000/svg">
<rect width="533" height="533" rx="140" fill="#444444"/>
<g clip-path="url(#clip0_1466_155)">
<path d="M220.294 146.372L112.463 333.135L205.854 387.054L313.686 200.291L220.294 146.372Z" fill="#FBBC04"/>
<path d="M421.526 333.121L313.681 146.352C298.794 120.564 265.818 111.719 240.029 126.613C214.241 141.5 205.397 174.476 220.29 200.265L328.128 387.034C343.015 412.822 375.992 421.647 401.78 406.773C427.569 391.886 436.393 358.91 421.526 333.121Z" fill="#4285F4"/>
<path d="M159.166 414C188.94 414 213.079 389.861 213.079 360.087C213.079 330.314 188.94 306.175 159.166 306.175C129.393 306.175 105.254 330.314 105.254 360.087C105.254 389.861 129.393 414 159.166 414Z" fill="#34A853"/>
</g>
<defs>
<clipPath id="clip0_1466_155">
<rect width="323.488" height="294.62" fill="white" transform="translate(105.254 119.38)"/>
</clipPath>
</defs>
</svg>
