<svg width="533" height="533" viewBox="0 0 533 533" fill="none" xmlns="http://www.w3.org/2000/svg">
<rect width="533" height="533" rx="140" fill="#FF0066"/>
<path d="M187.719 195.632C201.704 195.429 212.896 183.962 212.761 169.976C212.624 155.988 201.213 144.741 187.225 144.809C173.237 144.876 161.935 156.232 161.934 170.22C161.945 173.585 162.622 176.915 163.927 180.018C165.231 183.12 167.137 185.934 169.534 188.296C171.931 190.659 174.772 192.524 177.893 193.783C181.014 195.042 184.354 195.67 187.719 195.632ZM134.255 331.689C132.791 337.947 132.027 344.348 131.975 350.774C131.975 373.145 144.106 388 169.892 388C191.274 388 208.623 375.302 221.092 354.788L213.469 385.383H255.914L280.198 288.112C286.263 263.458 298.006 250.672 315.833 250.672C329.857 250.672 338.578 259.39 338.578 273.805C338.647 278.425 338.008 283.029 336.685 287.458L324.18 332.185C322.392 338.345 321.499 344.729 321.529 351.143C321.529 372.366 334.034 387.931 360.189 387.931C382.562 387.931 400.389 373.534 410.241 339.029L393.562 332.573C385.215 355.706 378.018 359.879 372.339 359.879C366.662 359.879 363.602 356.097 363.602 348.508C363.766 344.526 364.401 340.578 365.495 336.746L377.645 293.154C380.373 284.191 381.779 274.878 381.819 265.51C381.819 232.897 362.099 215.884 338.206 215.884C315.833 215.884 293.091 236.062 281.718 257.304L290.047 219.173H225.229L216.122 252.776H246.471L227.795 327.48C213.115 360.093 186.163 360.624 182.785 359.864C177.231 358.606 173.693 356.503 173.693 349.25C173.856 343.38 174.747 337.553 176.346 331.902L204.785 219.085H132.769L123.68 252.688H153.621L134.255 331.689Z" fill="white"/>
</svg>
