<svg width="533" height="533" viewBox="0 0 533 533" fill="none" xmlns="http://www.w3.org/2000/svg">
<rect width="533" height="533" rx="140" fill="#15C39A"/>
<path fill-rule="evenodd" clip-rule="evenodd" d="M403.318 266.2C403.318 341.973 341.932 402.4 266.159 402.4C190.386 402.4 129 341.014 129 266.2C129 191.386 190.386 130 266.159 130C341.932 130 403.318 190.427 403.318 266.2Z" fill="white"/>
<path fill-rule="evenodd" clip-rule="evenodd" d="M285.989 296.484C286.949 301.279 290.785 304.157 295.581 304.157H309.968L318.601 303.198C305.173 322.381 282.153 331.972 257.215 327.177C237.073 324.299 218.849 309.912 211.175 290.729C193.911 246.608 226.522 204.405 268.725 204.405C290.785 204.405 309.968 216.874 320.519 232.22C323.396 236.057 329.151 237.975 332.988 235.098C336.825 232.22 337.784 227.424 335.865 222.629C319.56 197.691 291.744 184.262 262.97 186.181C222.685 189.058 191.033 221.67 188.156 260.995C185.278 307.034 222.685 345.4 268.725 345.4C291.744 345.4 313.805 335.809 329.151 317.585L327.233 327.177V335.809C327.233 340.605 330.111 344.441 334.906 345.4C339.702 346.36 344.498 343.482 345.457 337.727C345.457 336.768 345.457 336.768 345.457 335.809V283.055H295.581C290.785 283.055 285.989 286.892 285.989 292.647C285.989 294.565 285.989 295.524 285.989 296.484Z" fill="#15C39A"/>
</svg>
