<svg width="533" height="533" viewBox="0 0 533 533" fill="none" xmlns="http://www.w3.org/2000/svg">
<rect width="533" height="533" rx="140" fill="#FF3C00"/>
<path d="M243.214 238.743C278.89 219.178 327.225 192.133 327.225 113.301H267.957C267.957 157.033 246.666 169.117 213.867 186.955C178.191 206.519 129.855 233.564 129.855 312.397H188.549C189.124 268.665 210.415 257.156 243.214 238.743Z" fill="white"/>
<path d="M345.054 220.906C345.054 264.638 323.764 276.722 290.965 294.56C255.289 314.124 206.953 341.169 206.953 420.002H265.646C265.646 376.27 286.937 364.186 319.736 346.348C355.412 326.783 403.747 299.738 403.747 220.906H345.054Z" fill="white"/>
</svg>
