<svg width="533" height="533" viewBox="0 0 533 533" fill="none" xmlns="http://www.w3.org/2000/svg">
<rect width="533" height="533" rx="140" fill="#EF785C"/>
<mask id="mask0_1466_142" style="mask-type:luminance" maskUnits="userSpaceOnUse" x="54" y="207" width="425" height="121">
<path d="M478.5 207.222H54V327.578H478.5V207.222Z" fill="white"/>
</mask>
<g mask="url(#mask0_1466_142)">
<path d="M99.9252 227.194V261.154H68.7805V227.194H54V308.223H68.7805V275.406H99.9252V308.223H114.794V227.194H99.9252Z" fill="#010202"/>
</g>
<mask id="mask1_1466_142" style="mask-type:luminance" maskUnits="userSpaceOnUse" x="54" y="207" width="425" height="121">
<path d="M478.5 207.222H54V327.578H478.5V207.222Z" fill="white"/>
</mask>
<g mask="url(#mask1_1466_142)">
<path d="M162.129 282.005C162.129 285.26 160.809 288.339 158.522 290.627C156.234 292.914 153.067 294.234 149.9 294.234C146.644 294.234 143.565 292.914 141.278 290.627C138.99 288.339 137.67 285.26 137.67 282.005V247.341H123.594V282.005C123.594 288.955 126.321 295.641 131.248 300.568C136.175 305.495 142.861 308.222 149.812 308.222C156.762 308.222 163.448 305.495 168.375 300.568C173.302 295.641 176.029 288.955 176.029 282.005V247.341H162.041V282.005H162.129Z" fill="#010202"/>
</g>
<mask id="mask2_1466_142" style="mask-type:luminance" maskUnits="userSpaceOnUse" x="54" y="207" width="425" height="121">
<path d="M478.5 207.222H54V327.578H478.5V207.222Z" fill="white"/>
</mask>
<g mask="url(#mask2_1466_142)">
<path d="M266.119 250.86C266.119 243.733 270.869 241.534 275.972 241.534C280.107 241.534 285.65 244.701 289.169 248.572L298.407 237.751C293.832 231.504 284.506 227.281 276.852 227.281C261.632 227.281 250.634 236.167 250.634 250.948C250.634 278.397 284.154 269.687 284.154 284.996C284.154 289.747 279.579 293.882 274.301 293.882C266.031 293.882 263.303 289.835 259.52 285.524L249.314 296.081C255.825 304.087 263.919 308.134 273.509 308.134C287.937 308.134 299.639 299.072 299.639 284.996C299.639 254.643 266.119 264.057 266.119 250.86Z" fill="#010202"/>
</g>
<mask id="mask3_1466_142" style="mask-type:luminance" maskUnits="userSpaceOnUse" x="54" y="207" width="425" height="121">
<path d="M478.5 207.222H54V327.578H478.5V207.222Z" fill="white"/>
</mask>
<g mask="url(#mask3_1466_142)">
<path d="M473.486 295.202C465.216 295.202 462.841 291.594 462.841 286.14V261.857H475.773V249.54H462.841V233.264L448.588 239.687V289.219C448.588 301.888 457.298 308.31 469.351 308.31C471.199 308.31 473.134 308.222 474.982 307.871L478.413 295.114C476.917 295.114 475.07 295.202 473.486 295.202Z" fill="#010202"/>
</g>
<mask id="mask4_1466_142" style="mask-type:luminance" maskUnits="userSpaceOnUse" x="54" y="207" width="425" height="121">
<path d="M478.5 207.222H54V327.578H478.5V207.222Z" fill="white"/>
</mask>
<g mask="url(#mask4_1466_142)">
<path d="M215.531 247.693C208.58 247.693 203.742 249.716 198.991 254.291V227.634H184.914V277.078C184.914 295.554 198.287 308.223 213.331 308.223C230.047 308.223 244.652 295.29 244.652 277.958C244.74 260.802 231.279 247.693 215.531 247.693ZM215.443 294.146C212.276 294.146 209.196 293.178 206.557 291.419C203.918 289.659 201.894 287.196 200.662 284.292C199.431 281.389 199.167 278.134 199.783 275.054C200.398 271.975 201.894 269.16 204.182 266.872C206.381 264.673 209.284 263.089 212.364 262.473C215.443 261.857 218.698 262.209 221.601 263.353C224.505 264.585 226.968 266.608 228.728 269.248C230.487 271.887 231.455 274.966 231.455 278.134C231.455 282.357 229.783 286.404 226.792 289.395C223.713 292.386 219.666 294.146 215.443 294.146Z" fill="#010202"/>
</g>
<mask id="mask5_1466_142" style="mask-type:luminance" maskUnits="userSpaceOnUse" x="54" y="207" width="425" height="121">
<path d="M478.5 207.222H54V327.578H478.5V207.222Z" fill="white"/>
</mask>
<g mask="url(#mask5_1466_142)">
<path d="M368.173 277.254C368.173 259.834 353.569 246.989 336.853 246.989C321.808 246.989 308.436 259.658 308.436 278.134V327.578H322.512V300.832C327.175 305.407 332.014 307.431 338.964 307.431C354.713 307.519 368.173 294.41 368.173 277.254ZM354.889 277.078C354.889 280.245 353.921 283.324 352.161 285.964C350.402 288.603 347.938 290.627 345.035 291.858C342.132 293.09 338.876 293.354 335.797 292.738C332.718 292.122 329.902 290.627 327.615 288.339C325.416 286.14 323.832 283.236 323.216 280.157C322.6 277.078 322.952 273.823 324.096 270.919C325.328 268.016 327.351 265.553 329.99 263.793C332.63 262.033 335.709 261.066 338.876 261.066C343.099 261.066 347.146 262.737 350.138 265.729C353.217 268.808 354.889 272.855 354.889 277.078Z" fill="#010202"/>
</g>
<mask id="mask6_1466_142" style="mask-type:luminance" maskUnits="userSpaceOnUse" x="54" y="207" width="425" height="121">
<path d="M478.5 207.222H54V327.578H478.5V207.222Z" fill="white"/>
</mask>
<g mask="url(#mask6_1466_142)">
<path d="M413.571 246.285V232.12C415.419 231.24 417.002 229.833 418.146 228.161C419.29 226.402 419.818 224.378 419.818 222.355V222.003C419.818 219.099 418.674 216.372 416.65 214.348C414.627 212.325 411.812 211.181 408.996 211.181H408.644C405.741 211.181 403.014 212.325 400.99 214.348C398.967 216.372 397.823 219.187 397.823 222.003V222.355C397.823 224.378 398.439 226.402 399.495 228.161C400.638 229.921 402.222 231.24 404.069 232.12V246.285C398.703 247.077 393.688 249.364 389.465 252.707L350.754 222.53C351.018 221.563 351.194 220.507 351.194 219.451C351.194 216.988 350.49 214.7 349.17 212.677C347.851 210.653 345.915 209.07 343.716 208.19C341.516 207.222 339.053 207.046 336.677 207.486C334.302 207.926 332.102 209.158 330.431 210.829C328.759 212.501 327.527 214.7 327.088 217.076C326.648 219.451 326.824 221.915 327.791 224.114C328.671 226.314 330.255 228.249 332.278 229.657C334.302 230.976 336.677 231.768 339.053 231.768C341.164 231.768 343.276 231.152 345.123 230.097L383.306 259.746C379.875 264.936 378.116 271.007 378.204 277.254C378.292 283.5 380.227 289.483 383.834 294.586L372.221 306.199C371.253 305.935 370.285 305.759 369.318 305.759C367.294 305.759 365.359 306.375 363.687 307.43C362.015 308.574 360.784 310.07 359.992 311.917C359.2 313.765 359.024 315.789 359.464 317.724C359.816 319.66 360.784 321.507 362.191 322.915C363.599 324.323 365.359 325.29 367.382 325.642C369.318 325.994 371.341 325.818 373.189 325.114C375.036 324.323 376.62 323.091 377.676 321.419C378.819 319.748 379.347 317.812 379.347 315.789C379.347 314.821 379.171 313.853 378.907 312.885L390.345 301.448C394.128 304.351 398.439 306.287 403.102 307.255C407.765 308.222 412.515 308.046 417.09 306.903C421.665 305.671 425.888 303.471 429.495 300.392C433.103 297.313 435.918 293.442 437.766 289.131C439.613 284.82 440.493 280.069 440.229 275.318C439.965 270.567 438.645 265.992 436.358 261.857C434.07 257.722 430.815 254.203 426.944 251.476C422.721 248.748 418.322 246.989 413.571 246.285ZM408.82 292.738C405.653 292.738 402.574 291.77 400.022 290.099C397.383 288.339 395.36 285.876 394.216 282.972C392.984 280.069 392.72 276.902 393.336 273.822C393.952 270.743 395.447 267.928 397.647 265.728C399.846 263.529 402.662 262.033 405.741 261.417C408.82 260.801 411.988 261.153 414.891 262.297C417.794 263.529 420.258 265.552 422.017 268.104C423.777 270.743 424.657 273.822 424.657 276.902C424.657 281.125 422.985 285.172 419.994 288.163C417.09 291.066 413.043 292.738 408.82 292.738Z" fill="white"/>
</g>
</svg>
