<svg width="533" height="533" viewBox="0 0 533 533" fill="none" xmlns="http://www.w3.org/2000/svg">
<rect width="533" height="533" rx="140" fill="#00C4CC"/>
<path d="M264.397 272.947C261.886 267.916 261.159 260.009 263.135 258.037C267.45 253.719 271.491 263.696 269.246 273.028C268.614 275.55 267.807 277.62 267.45 277.62C267.001 277.62 265.657 275.55 264.397 272.947Z" fill="#141414"/>
<path d="M176.757 197.713C181.529 199.151 183.76 200.498 186.994 203.729C193.284 210.114 194.723 213.612 194.723 223.217C194.723 230.412 194.449 231.756 192.299 235.524C188.159 242.526 178.554 248.995 171.909 249.171C167.233 249.269 167.426 247.199 172.541 241.814C179.364 234.717 180.35 232.026 180.35 221.421C180.266 211.188 179.006 207.69 174.249 204.813C170.292 202.389 165.987 202.568 159.697 205.525C143.349 213.349 125.657 239.39 118.75 266.07C109.583 301.632 125.836 330.094 152.6 325.242C160.409 323.804 175.14 316.268 181.529 310.332C186.819 305.495 186.819 305.4 187.352 299.387C188.531 286.803 197.41 274.237 209.278 268.399C214.744 265.698 216.102 265.438 223.462 265.438C230.464 265.438 232.081 265.796 235.495 267.673C246.36 273.882 244.115 288.336 232.355 288.336C225.532 288.336 222.023 284.828 226.97 282.955C231.822 281.158 230.012 274.416 224.367 272.893C217.719 271.181 210.169 275.675 205.412 284.295C199.659 294.714 199.396 307.112 204.865 312.76C210.169 318.419 216.814 313.939 221.939 301.081C224.627 294.532 228.489 291.023 232.987 291.023C236.933 291.023 237.659 293.451 235.944 300.822C233.425 312.223 235.137 315.184 242.234 311.69C244.564 310.606 248.43 308.101 250.759 306.305L255.158 302.797L258.133 287.256C261.368 269.837 262.613 267.494 269.261 266.249C275.646 265.07 277.084 268.22 274.741 278.183L273.478 283.761L278.154 278.99C289.198 267.673 302.764 262.109 307.437 266.782C309.946 269.29 309.672 272.441 306.083 283.569C304.382 288.873 302.038 297.233 300.972 301.986C299.354 309.168 299.256 310.88 300.165 312.048C303.042 315.458 311.837 311.95 319.649 304.316L324.227 299.836L324.775 289.859C325.308 278.362 326.378 274.237 329.434 270.55C332.31 267.14 337.52 264.631 340.302 265.343C343.084 266.07 343.084 268.757 340.576 276.664C337.067 287.529 337.436 312.581 341.028 312.581C342.467 312.581 349.823 304.863 354.5 298.398L357.994 293.626L355.212 290.764C350.36 285.642 349.195 282.323 349.195 273.963C349.195 267.866 349.648 265.617 351.167 262.642C353.689 257.983 357.636 254.573 362.309 253.216C367.241 251.693 373.353 254.201 375.861 258.695C378.383 263.274 377.755 273.511 374.517 280.527L372.188 285.638H375.328C379.643 285.638 381.344 284.568 389.073 277.292C393.114 273.43 397.787 270.101 401.281 268.483C415.026 262.028 431.199 265.343 433.883 275.223C436.128 283.13 431.199 288.694 422.565 288.062C416.37 287.613 415.205 285.993 418.798 282.955C425.263 277.552 418.798 270.648 409.547 273.156C404.516 274.51 398.857 280.159 395.9 286.722C389.964 299.836 393.114 315.279 401.639 315.279C405.053 315.279 411.08 308.54 413.409 301.986C416.191 294.437 422.029 289.683 426.428 291.392C428.856 292.286 429.035 294.71 427.512 302.344C425.8 310.704 425.537 318.517 426.88 322.106C427.417 323.446 429.035 325.968 430.568 327.67C433.43 330.901 433.529 332.069 431.101 333.602C429.936 334.409 428.4 334.055 424.635 331.988C419.426 329.287 414.932 324.435 413.314 319.857L412.329 317.17L408.736 319.857C406.666 321.296 403.435 322.913 401.555 323.446C394.1 325.421 384.933 320.31 380.632 311.69C378.917 308.357 378.383 298.577 379.643 294.805C380.358 292.735 380.358 292.735 377.478 294.174C375.959 294.984 372.725 295.875 370.216 296.149C366.077 296.605 365.445 297.054 361.323 302.26C355.485 309.522 345.15 319.324 340.93 321.394C331.956 325.874 328.995 324.614 326.652 315.36L325.034 309.168L321.168 312.581C316.236 316.896 306.357 322.106 300.695 323.365C295.31 324.53 289.556 322.818 287.223 319.226C283.732 313.841 284.897 302.439 290.458 287.077C294.583 275.675 291.626 275.5 281.21 286.365C273.482 294.532 270.163 300.369 268.012 309.441C265.767 318.871 263.066 322.281 256.969 323.72C253.281 324.53 251.566 322.281 252.296 317.349L252.829 313.388L249.415 315.732C244.564 319.05 238.452 322.106 234.232 323.271C230.012 324.435 224.448 323.186 223.104 320.843C220.68 316.721 220.68 316.721 216.912 319.678C208.731 326.326 197.056 324.435 191.134 315.637L189.24 312.855L183.321 318.335C166.247 333.96 144.882 340.962 129.071 336.111C108.951 330.013 97.8232 312.76 98.0021 287.887C98.0863 262.919 109.13 236.608 127.727 217.12C138.238 206.157 148.117 199.688 158.178 197.264C165.44 195.467 169.853 195.559 176.757 197.713Z" fill="#141414"/>
</svg>
