<svg width="533" height="533" viewBox="0 0 533 533" fill="none" xmlns="http://www.w3.org/2000/svg">
<rect width="533" height="533" rx="140" fill="#470137"/>
<path d="M278.363 178.889L222.892 270.416L282.059 367.49C282.43 368.229 282.613 368.971 282.43 369.709C282.246 370.448 281.504 369.893 280.395 370.08H238.053C235.095 370.08 233.06 369.893 231.767 368.045C227.884 360.279 223.814 352.697 219.931 344.931C216.048 337.352 211.798 329.586 207.36 321.633C202.922 313.683 198.485 305.734 194.047 297.597H193.676C189.793 305.546 185.539 313.5 181.288 321.449C177.063 329.321 172.871 337.211 168.714 345.118C164.46 352.884 160.209 360.834 155.956 368.416C155.217 370.264 153.737 370.448 151.702 370.448H111.024C110.285 370.448 109.731 370.819 109.731 369.893C109.648 369.547 109.638 369.188 109.701 368.839C109.764 368.489 109.9 368.156 110.098 367.861L167.604 273.56L111.579 178.705C111.024 177.963 110.84 177.224 111.208 176.854C111.579 176.299 112.317 176.115 113.059 176.115H155.03C155.956 176.115 156.881 176.299 157.62 176.486C158.358 176.854 158.913 177.408 159.468 178.15C162.983 186.1 167.05 194.05 171.304 202.003C175.741 209.952 179.992 217.718 184.617 225.484C189.054 233.25 193.121 241.016 197.004 248.966H197.375C201.258 240.833 205.325 232.879 209.392 225.113C213.462 217.347 217.712 209.581 221.966 201.816C226.22 194.05 230.287 186.1 234.354 178.518C234.541 177.779 234.908 177.041 235.463 176.67C236.205 176.299 236.943 176.115 237.869 176.299H276.883C277.101 176.25 277.328 176.244 277.549 176.283C277.769 176.322 277.98 176.404 278.17 176.524C278.359 176.645 278.522 176.801 278.65 176.985C278.779 177.169 278.87 177.376 278.918 177.595C279.101 177.779 278.73 178.518 278.363 178.889ZM363.788 373.963C350.104 374.147 336.42 371.373 324.033 365.643C312.384 360.279 302.77 351.404 296.114 340.493C289.27 329.215 285.942 315.164 285.942 298.335C285.758 284.655 289.27 271.154 296.114 259.322C303.138 247.302 313.31 237.317 325.513 230.661C338.455 223.449 353.987 219.937 372.293 219.937C373.219 219.937 374.512 219.937 376.176 220.121C377.84 220.308 379.688 220.308 381.907 220.492V162.064C381.907 160.767 382.461 160.028 383.758 160.028H421.291C422.217 159.845 422.955 160.583 423.143 161.322V337.72C423.143 341.048 423.326 344.747 423.51 348.814C423.881 352.697 424.065 356.396 424.252 359.541C424.252 360.834 423.697 361.943 422.401 362.498C412.716 366.568 402.607 369.545 392.262 371.373C382.832 373.037 373.402 373.963 363.788 373.963ZM381.907 336.981V255.623C380.243 255.255 378.578 254.884 376.914 254.7C374.887 254.483 372.851 254.36 370.812 254.329C363.601 254.329 356.39 255.81 349.921 259.138C343.601 262.285 338.191 266.994 334.202 272.819C330.135 278.737 328.1 286.686 328.1 296.304C327.939 302.793 329.006 309.254 331.244 315.348C333.092 320.34 335.866 324.778 339.565 328.477C343.13 331.879 347.434 334.41 352.14 335.872C357.132 337.536 362.308 338.274 367.484 338.274C370.258 338.274 372.848 338.091 375.25 337.907C377.656 338.091 379.688 337.72 381.907 336.981Z" fill="#FF61F6"/>
</svg>
