<svg width="533" height="533" viewBox="0 0 533 533" fill="none" xmlns="http://www.w3.org/2000/svg">
<rect width="533" height="533" rx="140" fill="#330000"/>
<path d="M266.213 334.775H185.236L168.692 385.93C168.257 387.89 166.517 389.196 164.557 388.977H123.632C121.238 388.977 120.585 387.671 121.238 385.059L191.332 183.27C191.985 181.095 192.638 178.699 193.507 176.087C194.379 171.515 194.814 166.728 194.814 161.938C194.597 160.85 195.467 159.761 196.556 159.544H252.934C254.677 159.544 255.546 160.197 255.764 161.285L335.217 385.496C335.87 387.89 335.217 388.977 333.041 388.977H287.545C286.023 389.196 284.498 388.108 284.063 386.583L266.213 334.775ZM197.862 290.587H253.152C251.846 286.015 250.105 280.573 248.146 274.914C246.187 269.036 244.228 262.724 242.269 256.194C240.092 249.445 238.132 242.915 235.955 236.166C233.78 229.419 231.82 223.105 230.078 216.793C228.337 210.7 226.812 205.039 225.29 199.814H224.853C222.894 209.175 220.5 218.536 217.454 227.895C214.188 238.344 210.923 249.227 207.44 260.112C204.628 270.386 201.434 280.552 197.862 290.587ZM383.76 197.637C376.577 197.855 369.612 195.025 364.387 190.019C359.381 184.576 356.769 177.393 356.985 169.993C356.769 162.591 359.598 155.626 364.822 150.618C370.046 145.612 377.013 143 384.197 143C392.686 143 399.217 145.612 404.004 150.618C408.828 155.896 411.405 162.846 411.188 169.993C411.406 177.393 408.794 184.576 403.57 190.019C398.564 195.243 391.162 198.074 383.76 197.637ZM359.381 386.583V218.971C359.381 216.793 360.251 215.922 362.21 215.922H405.31C407.269 215.922 408.141 217.012 408.141 218.971V386.583C408.141 388.977 407.269 390.067 405.31 390.067H362.646C360.469 390.067 359.381 388.761 359.381 386.583Z" fill="#FF9A00"/>
</svg>
