<svg width="533" height="533" viewBox="0 0 533 533" fill="none" xmlns="http://www.w3.org/2000/svg">
<rect width="533" height="533" rx="140" fill="#001E36"/>
<path d="M132.84 359.928V170.135C132.84 168.843 133.393 168.107 134.685 168.107C137.82 168.107 140.772 168.107 145.013 167.922C149.44 167.737 154.052 167.737 159.032 167.553C164.012 167.368 169.36 167.368 175.078 167.183C180.795 167 186.328 167 191.861 167C206.987 167 219.528 168.843 229.858 172.717C239.117 175.861 247.56 181.028 254.573 187.842C260.516 193.805 265.108 200.976 268.038 208.868C270.805 216.615 272.28 224.547 272.28 232.847C272.28 248.708 268.592 261.803 261.213 272.133C253.835 282.462 243.507 290.208 231.518 294.635C218.975 299.247 205.141 300.907 190.018 300.907C185.592 300.907 182.64 300.907 180.795 300.722C178.952 300.537 176.368 300.537 172.865 300.537V359.743C173.048 361.035 172.127 362.142 170.835 362.327H135.053C133.578 362.327 132.84 361.588 132.84 359.928ZM173.048 203.703V265.677C175.632 265.862 178.028 266.047 180.241 266.047H190.018C197.212 266.047 204.405 264.94 211.228 262.727C217.132 261.067 222.295 257.562 226.353 252.95C230.227 248.34 232.072 242.068 232.072 233.953C232.245 228.189 230.773 222.495 227.828 217.537C224.693 212.742 220.267 209.053 214.918 207.023C208.093 204.257 200.715 203.15 193.153 203.335C188.358 203.335 184.115 203.335 180.612 203.52C176.921 203.335 174.34 203.52 173.048 203.703ZM387.373 254.427C381.84 251.475 375.938 249.447 369.666 248.155C362.841 246.68 356.018 245.757 349.008 245.757C345.32 245.573 341.446 246.127 337.941 247.048C335.545 247.602 333.515 248.893 332.225 250.737C331.301 252.213 330.748 254.057 330.748 255.717C330.748 257.377 331.486 259.037 332.593 260.513C334.253 262.542 336.466 264.202 338.865 265.493C343.141 267.708 347.51 269.739 351.96 271.58C361.92 274.9 371.512 279.51 380.365 285.043C386.452 288.917 391.432 294.082 394.935 300.353C397.886 306.255 399.361 312.71 399.178 319.35C399.361 328.02 396.78 336.688 391.985 343.882C386.84 351.244 379.661 356.949 371.327 360.297C362.288 364.17 351.221 366.2 337.941 366.2C329.458 366.2 321.158 365.462 312.858 363.802C306.353 362.678 300.026 360.693 294.045 357.9C292.753 357.162 291.832 355.87 292.015 354.395V322.302C292.015 321.748 292.2 321.01 292.753 320.642C293.307 320.273 293.86 320.457 294.413 320.827C301.606 325.068 309.168 328.02 317.285 329.863C324.293 331.708 331.672 332.63 339.048 332.63C346.058 332.63 351.038 331.708 354.358 330.048C357.308 328.757 359.338 325.622 359.338 322.302C359.338 319.72 357.861 317.322 354.912 314.923C351.96 312.527 345.873 309.76 336.835 306.255C327.564 302.988 318.759 298.524 310.645 292.975C304.865 288.855 300.076 283.499 296.627 277.297C293.675 271.395 292.2 264.94 292.385 258.483C292.385 250.553 294.598 242.99 298.655 236.167C303.266 228.788 310.092 222.887 318.021 219.197C326.692 214.77 337.573 212.742 350.668 212.742C358.232 212.742 365.978 213.295 373.54 214.402C379.073 215.14 384.421 216.615 389.401 218.643C390.14 218.828 390.878 219.567 391.246 220.303C391.432 221.042 391.615 221.78 391.615 222.517V252.582C391.615 253.32 391.246 254.057 390.693 254.427C389.033 254.795 388.112 254.795 387.373 254.427Z" fill="#31A8FF"/>
</svg>
