<svg width="533" height="533" viewBox="0 0 533 533" fill="none" xmlns="http://www.w3.org/2000/svg">
<rect width="533" height="533" rx="140" fill="#FEE01A"/>
<path d="M341.866 257.726C344.112 257.476 346.358 257.476 348.355 257.726C349.603 254.98 349.603 250.488 348.604 245.746C347.107 238.508 345.11 234.016 340.618 234.765C336.375 235.513 336.126 240.754 337.623 247.992C338.621 251.985 340.119 255.479 341.866 257.726Z" fill="black"/>
<path d="M305.181 263.466C308.176 264.714 310.173 265.712 310.922 264.963C311.421 264.464 311.171 263.466 310.423 262.468C308.925 259.972 305.93 257.476 302.436 255.979C295.698 252.984 287.711 253.982 281.472 258.474C279.475 259.972 277.479 261.968 277.728 263.216C277.728 263.715 278.227 263.965 278.727 263.965C280.474 264.215 286.214 261.22 293.202 260.721C298.193 260.721 302.187 262.218 305.181 263.466Z" fill="black"/>
<path d="M298.937 266.96C294.944 267.709 292.698 268.957 291.45 270.205C290.202 271.203 289.453 272.451 289.453 273.199L289.703 273.948L290.451 274.198C291.45 274.198 293.446 273.449 293.446 273.449C298.937 271.452 302.681 271.702 306.175 272.201C308.171 272.451 309.17 272.451 309.669 271.952C309.918 271.702 309.918 271.452 309.669 270.704C308.421 268.957 304.428 266.461 298.937 266.96Z" fill="black"/>
<path d="M300.691 272.451C301.939 269.956 301.939 263.716 300.94 258.725C299.443 251.487 297.197 247.244 292.954 247.993C288.711 248.742 288.462 254.482 289.959 261.969C290.708 266.711 292.704 269.706 293.703 271.453C296.698 276.195 299.193 274.947 300.691 272.451Z" fill="black"/>
<path d="M329.388 279.938C332.133 281.186 335.128 280.687 336.127 278.69C337.125 276.693 335.628 273.948 332.882 272.7C330.137 271.452 327.142 271.951 326.144 273.948C325.395 275.945 326.643 278.69 329.388 279.938Z" fill="black"/>
<path d="M346.856 264.714C344.61 264.714 342.863 267.21 342.863 270.205C342.863 273.2 344.61 275.695 346.856 275.695C349.103 275.695 350.85 273.2 350.85 270.205C350.6 267.21 349.103 264.714 346.856 264.714Z" fill="black"/>
<path d="M199.36 319.121C198.861 318.372 197.862 318.622 197.114 318.872C196.614 319.121 195.866 319.121 195.117 319.121C193.62 319.121 192.122 318.372 191.373 317.125C190.375 315.627 190.375 313.381 191.623 310.636L192.122 309.388C193.869 305.394 196.864 298.906 193.62 292.417C191.124 287.675 187.131 284.68 182.139 284.181C177.397 283.682 172.655 285.429 169.66 288.673C164.918 293.914 164.17 301.401 164.918 303.897C165.168 304.895 165.917 305.145 166.166 305.145C166.915 305.145 168.163 304.646 168.912 302.649L169.161 301.9C169.411 300.902 170.16 298.906 171.158 297.159C172.406 295.162 174.402 293.914 176.648 293.415C178.895 292.916 181.39 293.415 183.387 294.663C186.881 296.909 188.129 301.152 186.631 305.145C185.883 307.142 184.635 311.135 184.884 314.379C185.384 320.868 189.377 323.613 193.12 323.863C196.614 324.113 199.11 322.116 199.609 320.619C199.859 319.87 199.609 319.371 199.36 319.121Z" fill="black"/>
<path d="M402.265 307.142C402.015 306.643 401.266 303.398 400.018 299.655L397.523 293.166C402.265 285.928 402.514 279.439 401.765 275.945C401.017 271.453 399.27 267.46 395.526 263.716C391.782 259.723 384.046 255.73 373.064 252.485L367.324 250.988C367.324 250.738 367.075 237.511 366.825 231.77C366.575 227.777 366.326 221.288 364.329 215.049C361.833 206.563 357.84 199.076 352.599 194.334C366.825 179.609 375.81 163.387 375.81 149.411C375.81 122.706 342.866 114.47 302.185 131.192L293.7 134.935C293.7 134.935 278.226 119.711 277.976 119.462C231.805 79.0306 87.0516 240.006 133.223 278.94L143.206 287.426C140.461 294.164 139.462 301.901 140.461 310.386C141.459 321.118 147.199 331.351 156.184 339.337C164.669 346.824 175.9 351.566 186.882 351.566C204.851 392.996 246.031 418.452 294.199 419.95C345.861 421.447 389.287 397.238 407.506 353.563C408.754 350.568 413.745 336.841 413.745 324.612C413.495 312.133 406.507 307.142 402.265 307.142ZM190.625 339.836C189.128 340.086 187.381 340.335 185.883 340.086C170.16 339.587 153.438 325.611 151.691 308.889C149.944 290.42 159.179 276.195 175.9 272.95C177.897 272.451 180.393 272.202 182.888 272.451C192.123 272.95 206.099 280.188 209.094 300.403C211.839 318.373 207.596 336.841 190.625 339.836ZM173.155 261.969C162.673 263.966 153.688 269.955 147.948 277.942C144.703 275.196 138.464 269.706 137.216 267.709C128.231 250.738 146.95 217.794 159.927 199.076C192.123 153.154 242.786 118.214 265.997 124.453C269.74 125.452 282.469 140.176 282.469 140.176C282.469 140.176 259.009 153.154 237.296 171.124C208.345 193.835 186.382 226.529 173.155 261.969ZM337.126 332.848C337.375 332.599 337.625 332.349 337.625 331.85C337.625 331.351 337.126 331.101 336.626 331.101C336.626 331.101 312.168 334.845 288.958 326.359C291.453 318.123 298.192 321.118 308.175 321.867C326.394 322.865 342.866 320.369 354.845 316.875C365.327 313.88 379.054 307.891 389.786 299.405C393.28 307.392 394.777 316.127 394.777 316.127C394.777 316.127 397.523 315.628 400.018 317.125C402.265 318.373 403.762 321.368 402.764 328.605C400.518 342.332 394.777 353.313 385.044 363.296C379.054 369.785 372.066 375.276 363.83 379.269C359.587 381.515 354.845 383.512 349.854 385.259C313.166 397.239 275.73 384.011 263.501 355.809C262.503 353.563 261.754 351.566 261.005 349.071C255.764 330.352 260.257 308.14 273.983 294.164C274.732 293.166 275.73 292.167 275.73 290.92C275.73 289.921 274.981 288.673 274.482 287.925C269.74 280.937 253.019 269.207 256.513 246.246C259.009 229.774 273.234 218.293 286.711 219.042L290.205 219.292C295.946 219.541 301.187 220.29 305.929 220.54C313.915 220.789 321.153 219.791 329.638 212.553C332.633 210.057 334.879 208.061 338.623 207.312C339.122 207.312 340.12 206.813 342.117 207.062C344.114 207.062 346.11 207.811 347.857 208.809C354.596 213.302 355.594 224.283 356.093 232.519C356.343 237.011 356.842 248.242 357.092 251.487C357.591 258.724 359.338 259.723 363.331 261.22C365.577 261.969 367.574 262.468 370.569 263.217C379.553 265.713 385.044 268.458 388.288 271.702C390.285 273.699 391.283 275.945 391.533 278.191C392.531 285.928 385.543 295.662 366.575 304.397C346.11 313.88 321.153 316.376 303.932 314.38L297.942 313.631C284.216 311.884 276.229 329.604 284.465 341.833C289.706 349.819 304.431 354.811 318.907 354.811C352.35 354.811 377.806 340.585 387.29 328.356L388.039 327.358C388.538 326.609 388.039 326.359 387.54 326.609C379.803 331.85 345.112 353.064 308.175 346.824C308.175 346.824 303.683 346.076 299.689 344.578C296.445 343.33 289.706 340.086 288.708 333.098C318.407 341.583 337.126 332.848 337.126 332.848ZM232.803 198.827C244.284 185.599 258.26 174.119 270.988 167.63C271.487 167.38 271.987 167.879 271.737 168.378C270.739 170.125 268.742 174.119 268.243 177.114C268.243 177.613 268.742 177.862 268.992 177.613C276.978 172.372 290.455 166.382 302.435 165.883C302.934 165.883 303.183 166.631 302.684 166.881C300.937 168.378 298.941 170.125 297.443 172.122C297.194 172.372 297.443 172.871 297.942 172.871C306.428 172.871 318.158 175.866 325.895 180.108C326.394 180.358 326.144 181.356 325.396 181.356C313.666 178.611 294.448 176.614 274.482 181.606C256.762 185.849 243.036 192.587 233.302 199.825C233.053 200.074 232.304 199.326 232.803 198.827Z" fill="black"/>
</svg>
