<svg width="533" height="533" viewBox="0 0 533 533" fill="none" xmlns="http://www.w3.org/2000/svg">
<rect width="533" height="533" rx="140" fill="#20B6FF"/>
<path d="M390.646 291.064C261.875 280.86 155.678 311.984 131.565 323.719C118.227 329.842 117.201 337.495 119.253 341.577C120.792 344.638 127.461 346.679 134.13 343.108C185.433 315.556 288.552 293.616 390.645 299.739C391.253 299.741 391.854 299.624 392.416 299.394C392.977 299.165 393.487 298.826 393.916 298.399C394.346 297.972 394.686 297.465 394.917 296.907C395.148 296.348 395.265 295.75 395.263 295.146C395.263 293.105 393.211 291.064 390.646 291.064ZM422.453 252.288C416.81 258.41 409.114 263.002 406.549 260.961C403.983 258.921 406.549 251.267 406.549 251.267C419.374 243.104 444 222.184 444 205.857C444 191.061 430.661 186.469 416.81 200.244C405.522 212.49 397.314 227.796 392.697 244.124C385.515 251.267 373.715 260.451 363.454 260.451C357.811 260.451 356.785 256.369 357.298 251.267C366.02 251.267 390.645 244.124 390.645 223.715C390.645 220.143 389.106 217.082 386.541 214.531C383.975 211.98 380.897 210.959 377.306 211.469C366.02 211.469 352.168 222.694 344.985 239.022C343.446 238.512 341.394 238.001 339.855 236.981C341.907 232.899 342.933 228.817 344.472 224.735C346.011 216.061 342.42 210.959 335.75 211.98C331.133 211.98 326.003 216.061 324.464 224.735C323.951 229.327 324.977 233.919 326.516 237.491C323.438 247.185 311.125 258.921 307.021 258.41C302.917 257.9 307.534 241.063 311.638 228.307C314.203 225.756 315.743 223.204 317.282 219.633C318.308 217.082 317.795 214.02 315.229 213C309.073 210.449 301.891 213.51 299.326 219.633C297.787 222.694 296.248 225.756 294.708 229.327C291.117 233.409 285.986 239.022 284.448 238.512C282.395 236.981 290.091 226.776 289.065 220.654C288.552 216.061 283.934 212.49 279.317 213.001C272.135 214.02 263.413 227.286 263.413 227.286C264.439 224.735 264.952 222.184 265.465 219.633C264.952 214.531 255.718 212.49 251.101 221.674C248.023 230.347 245.457 239.531 244.431 248.716C242.379 252.798 234.684 265.043 228.527 265.553C223.397 266.064 229.553 243.614 230.579 242.593C233.144 238.512 236.736 229.838 236.223 225.756C236.223 223.715 235.71 222.184 234.171 221.164C232.632 220.143 230.579 219.633 229.041 220.143C225.962 221.164 223.397 223.204 221.858 225.756C219.806 223.204 216.214 221.674 212.623 222.184C192.102 224.225 179.277 259.941 180.816 276.778C181.842 285.962 186.459 291.575 194.154 290.044C202.876 289.024 210.058 275.758 210.058 275.758C210.058 275.758 212.11 286.472 221.858 285.452C229.04 283.411 235.197 278.819 239.813 272.696C239.813 273.207 239.301 273.717 239.301 274.737C237.762 283.921 252.64 282.901 253.666 275.758C258.283 241.573 269.57 227.796 272.648 227.796C275.213 227.796 265.465 243.614 271.109 250.247C275.726 255.349 283.421 251.267 290.091 245.655C289.065 249.737 288.552 254.329 288.038 258.41C287.525 268.104 291.117 275.758 300.352 275.248C312.664 274.737 325.49 259.431 334.211 245.145C336.263 246.675 338.829 247.696 341.394 248.206C340.368 251.777 340.368 255.349 340.368 258.41C340.881 269.635 348.576 273.717 357.811 273.207C368.072 272.696 380.384 265.043 388.593 257.39C388.593 257.9 388.593 258.41 388.08 258.41C387.567 264.023 388.593 273.717 396.288 274.227C405.009 274.737 420.401 266.064 428.096 256.369C433.74 253.308 427.07 247.185 422.453 252.288ZM430.661 206.367C431.687 206.367 432.2 207.388 432.2 208.408C432.2 218.102 408.601 238.001 408.601 238.001C408.601 238.001 423.992 206.367 430.661 206.367ZM373.202 226.266C374.228 226.266 374.741 226.266 375.254 227.286C375.767 228.307 375.767 228.817 375.767 229.327C375.767 234.939 368.585 239.022 360.376 239.022C364.994 232.388 369.611 226.266 373.202 226.266ZM214.163 241.063C213.65 246.675 203.389 272.696 198.259 272.696C191.59 273.207 201.85 236.47 212.624 236.47C214.676 236.47 214.676 238.001 214.163 241.063ZM127.46 248.206C134.13 248.206 121.818 282.391 123.357 297.188C124.896 311.984 141.313 307.902 140.287 299.229C138.234 284.431 148.494 238.001 158.243 238.001C165.425 238.001 150.034 269.635 153.112 289.534C155.164 302.289 172.607 298.718 170.555 290.044C164.912 264.023 183.381 239.022 180.816 220.653C179.79 213 175.173 208.918 170.555 208.918C154.138 208.918 140.8 242.593 140.8 242.593C140.8 242.593 142.852 223.715 129 222.694C109.505 221.674 89.4966 270.656 90.0097 315.045C90.5227 329.332 107.966 326.781 106.939 315.556C105.913 295.657 117.2 248.206 127.46 248.206Z" fill="white"/>
</svg>
