<svg width="533" height="533" viewBox="0 0 533 533" fill="none" xmlns="http://www.w3.org/2000/svg">
<rect width="533" height="533" rx="140" fill="#444444"/>
<path d="M159.443 351.766C146.661 351.766 134.732 344.949 128.483 333.871C122.234 322.794 122.518 309.16 129.335 298.651L192.959 198.67C199.492 187.593 211.705 181.344 224.487 181.628C237.269 181.912 248.914 189.013 254.879 200.375C260.844 211.736 259.991 225.086 252.891 235.595L189.551 335.576C183.018 345.801 171.656 351.766 159.443 351.766Z" fill="#F62B54"/>
<path d="M268.796 351.764C256.015 351.764 244.085 344.948 237.836 333.87C231.588 322.793 231.872 309.443 238.688 298.65L302.313 198.953C308.845 187.876 320.775 181.059 333.84 181.627C346.906 181.911 358.552 189.012 364.516 200.373C370.481 211.735 369.629 225.368 362.244 235.878L298.62 335.574C292.087 345.8 280.726 351.764 268.796 351.764Z" fill="#FFCC00"/>
<path d="M375.316 352.618C393.356 352.618 407.981 338.249 407.981 320.522C407.981 302.796 393.356 288.426 375.316 288.426C357.277 288.426 342.652 302.796 342.652 320.522C342.652 338.249 357.277 352.618 375.316 352.618Z" fill="#00CA72"/>
</svg>
