<svg width="533" height="533" viewBox="0 0 533 533" fill="none" xmlns="http://www.w3.org/2000/svg">
<rect width="533" height="533" rx="140" fill="#4D9C81"/>
<path fill-rule="evenodd" clip-rule="evenodd" d="M385.392 242.417C388.533 233.109 389.627 223.233 388.6 213.464C387.573 203.694 384.449 194.262 379.44 185.811C372.154 172.948 360.941 162.756 347.442 156.729C333.943 150.702 318.869 149.156 304.427 152.318C296.335 142.977 285.888 135.973 274.172 132.035C262.457 128.097 249.901 127.369 237.809 129.926C225.717 132.483 214.53 138.231 205.412 146.574C196.293 154.918 189.575 165.551 185.957 177.369C173.908 179.871 162.733 185.511 153.563 193.718C144.392 201.924 137.551 212.407 133.732 224.105C129.912 235.804 129.248 248.303 131.809 260.34C134.369 272.377 140.062 283.525 148.312 292.656C145.234 301.974 144.172 311.84 145.198 321.599C146.224 331.358 149.314 340.788 154.263 349.262C161.557 362.151 172.793 372.361 186.321 378.39C199.848 384.419 214.953 385.949 229.414 382.755C237.628 391.92 248.117 398.753 259.819 402.564C271.521 406.376 284.022 407.029 296.058 404.459C308.094 401.889 319.237 396.186 328.362 387.928C337.487 379.669 344.269 369.148 348.024 357.427C360.136 355.072 371.398 349.522 380.643 341.351C389.888 333.18 396.781 322.685 400.606 310.954C404.432 299.224 405.051 286.683 402.401 274.633C399.75 262.582 393.925 251.459 385.53 242.417H385.392ZM281.315 387.737C269.223 387.833 257.495 383.613 248.237 375.835L249.898 374.866L305.258 343.034C306.616 342.204 307.746 341.047 308.543 339.669C309.341 338.292 309.782 336.736 309.825 335.145V257.502L333.076 271.342C333.137 271.448 333.169 271.567 333.169 271.688C333.169 271.81 333.137 271.929 333.076 272.034V336.391C333.076 343.2 331.733 349.942 329.123 356.231C326.513 362.52 322.688 368.232 317.867 373.041C313.046 377.849 307.323 381.659 301.027 384.252C294.731 386.845 287.985 388.17 281.176 388.152L281.315 387.737ZM170.594 340.266C164.616 329.736 162.464 317.463 164.505 305.527L166.165 306.496L221.526 338.19C222.884 339.007 224.439 339.44 226.024 339.44C227.609 339.44 229.164 339.007 230.522 338.19L297.923 299.438V326.287C297.983 326.392 298.015 326.512 298.015 326.633C298.015 326.755 297.983 326.874 297.923 326.979L242.563 359.227C236.591 362.875 229.945 365.281 223.021 366.302C216.098 367.322 209.041 366.936 202.27 365.165C195.5 363.395 189.156 360.278 183.618 356C178.081 351.721 173.463 346.37 170.041 340.266H170.594ZM156.754 220.134C162.988 209.517 172.802 201.47 184.434 197.437V262.9C184.39 264.474 184.78 266.029 185.562 267.396C186.343 268.763 187.485 269.889 188.863 270.65L254.465 309.264L231.075 323.104C230.949 323.177 230.806 323.215 230.66 323.215C230.514 323.215 230.371 323.177 230.245 323.104L174.885 290.995C162.98 284.107 154.296 272.775 150.741 259.488C147.186 246.202 149.05 232.047 155.924 220.134H156.754ZM348.162 264.699L279.654 226.224L302.905 212.384H303.735L359.096 244.631C367.623 249.539 374.575 256.775 379.138 265.492C383.7 274.209 385.683 284.046 384.855 293.85C384.028 303.653 380.423 313.018 374.463 320.847C368.504 328.675 360.436 334.643 351.207 338.051V272.311C351.197 270.75 350.768 269.219 349.964 267.88C349.161 266.541 348.013 265.443 346.64 264.699H348.162ZM371.275 229.822L369.614 228.853L314.254 196.745C312.87 195.929 311.293 195.499 309.687 195.499C308.08 195.499 306.503 195.929 305.119 196.745L237.303 235.497V208.647L292.663 176.538C301.199 171.615 310.961 169.223 320.806 169.643C330.651 170.063 340.173 173.278 348.259 178.91C356.345 184.542 362.66 192.36 366.466 201.45C370.272 210.539 371.412 220.524 369.752 230.237L371.275 229.822ZM224.432 277.432L201.042 263.592V199.236C201.046 189.374 203.859 179.717 209.153 171.397C214.446 163.076 222.001 156.436 230.932 152.254C239.863 148.071 249.801 146.52 259.581 147.781C269.362 149.043 278.581 153.065 286.159 159.376L284.498 160.207L229.138 192.039C227.77 192.859 226.634 194.014 225.835 195.394C225.036 196.773 224.601 198.334 224.57 199.928L224.432 277.432ZM237.026 249.752L267.059 232.452L297.092 249.752V284.352L267.198 301.652L237.303 284.767V250.167L237.026 249.752Z" fill="white"/>
</svg>
