<svg width="533" height="533" viewBox="0 0 533 533" fill="none" xmlns="http://www.w3.org/2000/svg">
<rect width="533" height="533" rx="140" fill="#3C4C52"/>
<path fill-rule="evenodd" clip-rule="evenodd" d="M307.373 133C351.104 133 387 168.744 387 213.404C387 258.064 351.104 293.808 307.373 293.808H194.089C190.731 293.808 187.373 297.151 187.373 300.495V354.111C187.373 357.454 190.731 360.798 194.089 360.798H246.813C250.171 360.798 253.529 357.454 253.529 354.111V307.221H293.903V354.111C293.903 379.785 272.597 401 247.933 401H194.089C169.425 401 148.119 379.785 148.119 354.111V300.495C148.119 277.05 164.948 256.95 188.492 253.606H308.492C330.918 253.606 348.866 235.734 348.866 213.404C348.866 191.074 330.918 173.202 308.492 173.202H194.089C190.731 173.202 187.373 176.546 187.373 179.889V240.192C171.664 242.422 157.074 250.262 147 262.522V179.889C148.119 154.216 169.425 133 194.089 133H307.373Z" fill="white"/>
</svg>
