<svg width="533" height="533" viewBox="0 0 533 533" fill="none" xmlns="http://www.w3.org/2000/svg">
<rect width="533" height="533" rx="140" fill="url(#paint0_linear_1466_421)"/>
<path fill-rule="evenodd" clip-rule="evenodd" d="M267.523 360.358V401.399C260.682 401.399 254.494 398.793 249.933 394.233L246.676 390.325L135.929 258.405C135.929 258.405 135.929 258.405 135.929 258.079L135.603 257.427C134.951 256.776 134.626 255.799 134.3 255.147C133.974 254.17 133.648 252.867 133.648 251.89V251.239C133.648 250.913 133.648 250.913 133.648 250.587C133.974 248.307 134.951 246.353 136.254 244.724C138.209 242.77 140.814 241.467 143.42 241.467H167.85L267.523 360.358Z" fill="url(#paint1_linear_1466_421)"/>
<path fill-rule="evenodd" clip-rule="evenodd" d="M267.523 360.358V401.399C260.682 401.399 254.494 398.793 249.933 394.233L246.676 390.325L135.929 258.405C135.929 258.405 135.929 258.405 135.929 258.079L135.603 257.427C134.951 256.776 134.626 255.799 134.3 255.147C133.974 254.17 133.648 252.867 133.648 251.89V251.239C133.648 250.913 133.648 250.913 133.648 250.587C133.974 248.307 134.951 246.353 136.254 244.724C138.209 242.77 140.814 241.467 143.42 241.467H167.85L267.523 360.358Z" fill="url(#paint2_linear_1466_421)"/>
<path fill-rule="evenodd" clip-rule="evenodd" d="M267.523 360.358V401.399C260.682 401.399 254.494 398.793 249.933 394.233L246.676 390.325L163.941 291.955L135.929 258.405C135.929 258.405 135.929 258.405 135.929 258.079L135.603 257.427C134.951 256.776 134.626 255.799 134.3 255.147C133.974 254.17 133.648 252.867 133.648 251.89V251.239C133.648 250.913 133.648 250.913 133.648 250.587C133.974 248.307 134.951 246.353 136.254 244.724C138.209 242.77 140.814 241.467 143.42 241.467H167.85L179.25 255.147L210.195 291.955L260.357 352.214L267.523 360.358Z" fill="url(#paint3_linear_1466_421)" fill-opacity="0.4"/>
<path fill-rule="evenodd" clip-rule="evenodd" d="M267.528 305.961V360.683L135.608 204.334L135.282 204.008C134.631 203.357 134.305 202.379 133.98 201.402C133.654 200.425 133.328 199.122 133.328 198.145V197.494C133.328 194.888 134.305 192.608 135.934 190.979C137.888 189.025 140.494 187.722 143.1 187.722H167.855L267.528 305.961Z" fill="url(#paint4_linear_1466_421)"/>
<path fill-rule="evenodd" clip-rule="evenodd" d="M267.528 305.961V360.683L135.608 204.334L135.282 204.008C134.631 203.357 134.305 202.379 133.98 201.402C133.654 200.425 133.328 199.122 133.328 198.145V197.494C133.328 194.888 134.305 192.608 135.934 190.979C137.888 189.025 140.494 187.722 143.1 187.722H167.855L267.528 305.961Z" fill="url(#paint5_linear_1466_421)"/>
<path fill-rule="evenodd" clip-rule="evenodd" d="M267.528 305.961V360.683L260.362 352.214L209.874 292.28L178.93 255.799L167.53 242.118L135.608 204.334L135.282 204.008C134.631 203.357 134.305 202.379 133.98 201.402C133.654 200.425 133.328 199.122 133.328 198.145V197.494C133.328 194.888 134.305 192.608 135.934 190.979C137.888 189.025 140.494 187.722 143.1 187.722H167.855L179.256 201.402L213.783 242.118L225.183 255.799L256.128 292.28L267.528 305.961Z" fill="url(#paint6_linear_1466_421)" fill-opacity="0.3"/>
<path fill-rule="evenodd" clip-rule="evenodd" d="M142.772 133C139.84 133 137.234 134.303 135.606 136.257C133.977 137.886 133 140.166 133 142.772V143.423C133 144.726 133.326 145.703 133.651 146.681C133.651 146.681 133.651 146.681 133.651 147.006C133.977 147.658 134.303 148.635 134.954 149.286C135.28 149.612 135.28 149.612 135.606 149.938L267.2 305.962V401.4C267.851 401.4 268.503 401.4 269.154 401.4C275.343 401.074 280.555 398.468 284.789 394.56L288.047 390.651L399.12 259.057L399.446 258.731C400.097 258.08 400.423 257.102 400.749 256.125C401.074 255.148 401.4 253.845 401.4 252.542V143.423C401.4 140.817 400.423 138.212 398.794 136.583C396.84 134.629 394.234 133.326 391.628 133.326H142.772V133Z" fill="url(#paint7_linear_1466_421)"/>
<path fill-rule="evenodd" clip-rule="evenodd" d="M142.772 133C139.84 133 137.234 134.303 135.606 136.257C133.977 137.886 133 140.166 133 142.772V143.423C133 144.726 133.326 145.703 133.651 146.681C133.651 146.681 133.651 146.681 133.651 147.006C133.977 147.658 134.303 148.635 134.954 149.286C135.28 149.612 135.28 149.612 135.606 149.938L267.2 305.962V401.4C267.851 401.4 268.503 401.4 269.154 401.4C275.343 401.074 280.555 398.468 284.789 394.56L288.047 390.651L399.12 259.057L399.446 258.731C400.097 258.08 400.423 257.102 400.749 256.125C401.074 255.148 401.4 253.845 401.4 252.542V143.423C401.4 140.817 400.423 138.212 398.794 136.583C396.84 134.629 394.234 133.326 391.628 133.326H142.772V133Z" fill="url(#paint8_linear_1466_421)"/>
<path fill-rule="evenodd" clip-rule="evenodd" d="M142.772 133C139.84 133 137.234 134.303 135.606 136.257C133.977 137.886 133 140.166 133 142.772V143.423C133 144.726 133.326 145.703 133.651 146.681C133.651 146.681 133.651 146.681 133.651 147.006C133.977 147.658 134.303 148.635 134.954 149.286C135.28 149.612 135.28 149.612 135.606 149.938L267.2 305.962V401.4C267.851 401.4 268.503 401.4 269.154 401.4C275.343 401.074 280.555 398.468 284.789 394.56L288.047 390.651L399.12 259.057L399.446 258.731C400.097 258.08 400.423 257.102 400.749 256.125C401.074 255.148 401.4 253.845 401.4 252.542V143.423C401.4 140.817 400.423 138.212 398.794 136.583C396.84 134.629 394.234 133.326 391.628 133.326H142.772V133Z" fill="url(#paint9_linear_1466_421)"/>
<path fill-rule="evenodd" clip-rule="evenodd" d="M142.772 133C139.84 133 137.234 134.303 135.606 136.257C133.977 137.886 133 140.166 133 142.772V143.423C133 144.726 133.326 145.703 133.651 146.681C133.651 146.681 133.651 146.681 133.651 147.006C133.977 147.658 134.303 148.635 134.954 149.286C135.28 149.612 135.28 149.612 135.606 149.938L267.2 305.962V401.4C267.851 401.4 268.503 401.4 269.154 401.4C275.343 401.074 280.555 398.468 284.789 394.56L288.047 390.651L399.12 259.057L399.446 258.731C400.097 258.08 400.423 257.102 400.749 256.125C401.074 255.148 401.4 253.845 401.4 252.542V143.423C401.4 140.817 400.423 138.212 398.794 136.583C396.84 134.629 394.234 133.326 391.628 133.326H142.772V133Z" fill="url(#paint10_linear_1466_421)"/>
<path fill-rule="evenodd" clip-rule="evenodd" d="M142.772 133C139.84 133 137.234 134.303 135.606 136.257C133.977 137.886 133 140.166 133 142.772V143.423C133 144.726 133.326 145.703 133.651 146.681C133.651 146.681 133.651 146.681 133.651 147.006C133.977 147.658 134.303 148.635 134.954 149.286C135.28 149.612 135.28 149.612 135.606 149.938L267.2 305.962V401.4C267.851 401.4 268.503 401.4 269.154 401.4C275.343 401.074 280.555 398.468 284.789 394.56L288.047 390.651L399.12 259.057L399.446 258.731C400.097 258.08 400.423 257.102 400.749 256.125C401.074 255.148 401.4 253.845 401.4 252.542V143.423C401.4 140.817 400.423 138.212 398.794 136.583C396.84 134.629 394.234 133.326 391.628 133.326H142.772V133Z" fill="url(#paint11_linear_1466_421)"/>
<path fill-rule="evenodd" clip-rule="evenodd" d="M142.772 133C139.84 133 137.234 134.303 135.606 136.257C133.977 137.886 133 140.166 133 142.772V143.423C133 144.726 133.326 145.703 133.651 146.681C133.651 146.681 133.651 146.681 133.651 147.006C133.977 147.658 134.303 148.635 134.954 149.286C135.28 149.612 135.28 149.612 135.606 149.938L267.2 305.962V401.4C267.851 401.4 268.503 401.4 269.154 401.4C275.343 401.074 280.555 398.468 284.789 394.56L288.047 390.651L399.12 259.057L399.446 258.731C400.097 258.08 400.423 257.102 400.749 256.125C401.074 255.148 401.4 253.845 401.4 252.542V143.423C401.4 140.817 400.423 138.212 398.794 136.583C396.84 134.629 394.234 133.326 391.628 133.326H142.772V133Z" fill="url(#paint12_linear_1466_421)"/>
<defs>
<linearGradient id="paint0_linear_1466_421" x1="245.69" y1="291.027" x2="329.55" y2="201.503" gradientUnits="userSpaceOnUse">
<stop stop-color="#FCDED8"/>
<stop offset="1" stop-color="#FCDED8"/>
</linearGradient>
<linearGradient id="paint1_linear_1466_421" x1="226.304" y1="303.77" x2="202.94" y2="322.104" gradientUnits="userSpaceOnUse">
<stop stop-color="#F4A595" stop-opacity="0.3"/>
<stop offset="1" stop-color="#F29595"/>
</linearGradient>
<linearGradient id="paint2_linear_1466_421" x1="226.304" y1="303.77" x2="202.94" y2="322.104" gradientUnits="userSpaceOnUse">
<stop stop-color="#F4A595" stop-opacity="0.3"/>
<stop offset="1" stop-color="#F29595"/>
</linearGradient>
<linearGradient id="paint3_linear_1466_421" x1="195.359" y1="328.793" x2="220.417" y2="306.401" gradientUnits="userSpaceOnUse">
<stop stop-color="#FCDED8"/>
<stop offset="1" stop-color="#FCDED8"/>
</linearGradient>
<linearGradient id="paint4_linear_1466_421" x1="226.805" y1="250.776" x2="200.897" y2="276.651" gradientUnits="userSpaceOnUse">
<stop stop-color="#F4A595" stop-opacity="0.3"/>
<stop offset="1" stop-color="#F29595"/>
</linearGradient>
<linearGradient id="paint5_linear_1466_421" x1="226.805" y1="250.776" x2="200.897" y2="276.651" gradientUnits="userSpaceOnUse">
<stop stop-color="#F4A595" stop-opacity="0.3"/>
<stop offset="1" stop-color="#F29595"/>
</linearGradient>
<linearGradient id="paint6_linear_1466_421" x1="197.783" y1="279.843" x2="224.149" y2="252.98" gradientUnits="userSpaceOnUse">
<stop stop-color="#F4A495"/>
<stop offset="1" stop-color="#F7B5A9"/>
</linearGradient>
<linearGradient id="paint7_linear_1466_421" x1="368.125" y1="292.842" x2="186.556" y2="167.973" gradientUnits="userSpaceOnUse">
<stop stop-color="#EC6564"/>
<stop offset="1" stop-color="#EF7B74"/>
</linearGradient>
<linearGradient id="paint8_linear_1466_421" x1="368.125" y1="292.842" x2="186.556" y2="167.973" gradientUnits="userSpaceOnUse">
<stop stop-color="#EC6564"/>
<stop offset="1" stop-color="#EF7B74"/>
</linearGradient>
<linearGradient id="paint9_linear_1466_421" x1="368.125" y1="292.842" x2="186.556" y2="167.973" gradientUnits="userSpaceOnUse">
<stop stop-color="#EC6564"/>
<stop offset="1" stop-color="#EF7B74"/>
</linearGradient>
<linearGradient id="paint10_linear_1466_421" x1="368.125" y1="292.842" x2="186.556" y2="167.973" gradientUnits="userSpaceOnUse">
<stop stop-color="#EC6564"/>
<stop offset="1" stop-color="#EF7B74"/>
</linearGradient>
<linearGradient id="paint11_linear_1466_421" x1="368.125" y1="292.842" x2="186.556" y2="167.973" gradientUnits="userSpaceOnUse">
<stop stop-color="#EC6564"/>
<stop offset="1" stop-color="#EF7B74"/>
</linearGradient>
<linearGradient id="paint12_linear_1466_421" x1="368.125" y1="292.842" x2="186.556" y2="167.973" gradientUnits="userSpaceOnUse">
<stop stop-color="#EC6564"/>
<stop offset="1" stop-color="#EF7B74"/>
</linearGradient>
</defs>
</svg>
