<svg width="533" height="533" viewBox="0 0 533 533" fill="none" xmlns="http://www.w3.org/2000/svg">
<rect width="533" height="533" rx="140" fill="#00005B"/>
<path d="M143.238 361.354V168.371C143.238 167.061 143.8 166.311 145.112 166.311C148.297 166.311 151.295 166.311 155.604 166.123C160.101 165.937 164.785 165.937 169.844 165.749C174.903 165.561 180.336 165.561 186.145 165.375C191.952 165.187 197.572 165.187 203.193 165.187C218.557 165.187 231.297 167.061 241.791 170.995C251.196 174.189 259.772 179.437 266.897 186.358C272.934 192.415 277.598 199.699 280.574 207.717C283.385 215.586 284.883 223.643 284.883 232.075C284.883 248.187 281.137 261.491 273.642 271.982C266.147 282.474 255.655 290.343 243.477 294.84C230.735 299.524 216.683 301.211 201.321 301.211C196.824 301.211 193.826 301.211 191.952 301.023C190.079 300.837 187.455 300.837 183.896 300.837V360.979C184.082 362.29 183.146 363.414 181.834 363.602H145.487C143.988 363.602 143.238 362.852 143.238 361.166V361.354ZM184.082 202.658V265.612C186.707 265.799 189.141 265.987 191.389 265.987H201.321C208.628 265.987 215.935 264.863 222.866 262.615C228.863 260.929 234.108 257.368 238.23 252.684C242.165 248.001 244.039 241.63 244.039 233.387C244.215 227.531 242.72 221.747 239.729 216.71C236.544 211.84 232.047 208.093 226.615 206.031C219.682 203.22 212.187 202.096 204.505 202.284C199.635 202.284 195.324 202.284 191.765 202.472C188.017 202.284 185.395 202.472 184.082 202.658ZM311.863 213.714H344.652C346.526 213.714 348.024 215.024 348.587 216.71C349.149 218.21 349.523 219.709 349.711 221.395C350.085 223.269 350.461 225.33 350.647 227.204C350.835 229.264 351.023 231.512 351.023 233.949C356.648 227.381 363.446 221.916 371.07 217.834C379.689 212.964 389.619 210.527 399.548 210.527C400.86 210.341 401.984 211.277 402.172 212.59V249.873C402.172 251.373 401.234 251.935 399.174 251.935C392.429 251.747 385.496 252.309 378.939 253.808C373.506 254.932 368.259 256.618 363.201 258.867C359.64 260.553 356.268 262.801 353.645 265.799V361.354C353.645 363.228 352.895 363.976 351.209 363.976H314.299C312.801 364.164 311.489 363.228 311.301 361.728V257.18C311.301 252.684 311.301 248.001 311.115 243.128C310.927 238.257 310.927 233.387 310.739 228.514C310.739 224.205 310.365 220.083 309.991 215.774C309.803 214.838 310.365 213.9 311.301 213.714C311.301 213.526 311.677 213.526 311.863 213.714Z" fill="#9999FF"/>
</svg>
