<svg width="533" height="533" viewBox="0 0 533 533" fill="none" xmlns="http://www.w3.org/2000/svg">
<rect width="533" height="533" rx="140" fill="#FF642D"/>
<path fill-rule="evenodd" clip-rule="evenodd" d="M345.262 261.545C345.262 254.653 341.098 249.771 333.201 249.771H307.355V285.093H315.827V272.888H325.734L335.498 285.093H345.118V284.231L335.498 272.745C341.672 271.452 345.262 267.001 345.262 261.545ZM332.195 265.709H315.827V257.094H332.195C335.067 257.094 337.077 258.674 337.077 261.545C337.221 264.273 335.354 265.709 332.195 265.709Z" fill="black"/>
<path fill-rule="evenodd" clip-rule="evenodd" d="M473.483 249.627H465.586V262.981H444.192V249.627H435.721V284.805H444.192V271.021H465.586V284.805H473.483V249.627Z" fill="black"/>
<path fill-rule="evenodd" clip-rule="evenodd" d="M284.522 249.627L275.189 279.062H274.758L265.281 249.627H250.205V284.805H258.246V255.945H258.677L268.009 284.805H280.932L290.552 255.945H290.983V284.805H299.167V249.627H284.522Z" fill="black"/>
<path fill-rule="evenodd" clip-rule="evenodd" d="M192.197 263.986C189.326 263.843 183.726 263.125 180.567 262.981C177.552 262.694 175.829 261.689 175.829 259.822C175.829 257.812 177.839 256.376 185.018 256.376C191.336 256.376 197.366 257.812 202.679 260.253V252.356C197.51 249.772 191.767 248.766 184.587 248.766C174.68 248.766 167.645 252.93 167.645 259.966C167.645 265.997 171.665 269.299 179.993 270.16C182.864 270.591 188.033 271.022 191.336 271.309C195.213 271.453 196.218 272.745 196.218 274.468C196.218 276.765 193.49 278.201 186.885 278.201C180.136 278.201 173.101 275.904 168.075 272.889V281.073C172.096 283.801 178.844 285.955 186.741 285.955C197.51 285.955 204.546 281.647 204.546 274.181C204.546 268.437 200.956 264.848 192.197 263.986Z" fill="black"/>
<path fill-rule="evenodd" clip-rule="evenodd" d="M210.289 249.627V284.805H243.026V277.626H218.33V270.447H242.595V263.124H218.33V256.807H243.026V249.627H210.289Z" fill="black"/>
<path fill-rule="evenodd" clip-rule="evenodd" d="M418.055 263.986C415.183 263.843 409.583 263.125 406.424 262.981C403.409 262.694 401.686 261.689 401.686 259.822C401.686 257.812 403.696 256.376 410.876 256.376C417.193 256.376 423.224 257.669 428.536 260.253V252.356C423.367 249.772 417.624 248.766 410.445 248.766C400.538 248.766 393.502 252.93 393.502 259.966C393.502 265.997 397.522 269.299 405.85 270.16C408.722 270.591 413.891 271.022 417.193 271.309C421.07 271.453 422.075 272.745 422.075 274.468C422.075 276.765 419.347 278.201 412.742 278.201C405.994 278.201 398.958 275.904 393.933 272.889V281.073C397.953 283.801 404.701 285.955 412.599 285.955C423.367 285.955 430.403 281.647 430.403 274.181C430.403 268.437 426.526 264.848 418.055 263.986Z" fill="black"/>
<path fill-rule="evenodd" clip-rule="evenodd" d="M379.291 249.627V267.575C379.291 274.467 374.984 278.201 368.809 278.201C362.492 278.201 358.471 274.611 358.471 267.575V249.627H350V266.857C350 279.493 358.041 285.954 368.809 285.954C379.435 285.954 387.475 279.78 387.475 267.288V249.627H379.291Z" fill="black"/>
<path fill-rule="evenodd" clip-rule="evenodd" d="M138.786 267.001C138.786 268.724 137.925 268.868 135.771 268.868C133.474 268.868 133.043 268.437 132.756 266.858C132.325 262.407 129.454 258.53 124.285 258.243C122.849 258.099 122.418 257.668 122.418 255.515C122.418 253.648 122.562 252.787 124.141 252.787C132.612 252.93 138.786 259.966 138.786 267.001ZM151.278 267.001C151.278 253.792 142.376 239.864 121.556 239.864H80.6351C79.7736 239.864 79.0557 240.295 79.0557 241.156C79.0557 241.587 79.3429 242.018 79.7736 242.161C81.2095 243.454 83.3632 244.746 86.3785 246.182C89.1066 247.761 91.4039 248.479 93.5577 249.341C94.4192 249.771 94.8499 250.202 94.8499 250.633C94.8499 251.351 94.4192 251.925 93.2705 251.925H60.8206C59.8155 251.781 59.3848 252.356 59.3848 252.93C59.3848 253.648 59.5283 254.079 59.9591 254.51C62.5436 257.238 66.8511 260.684 72.8816 264.417C78.1942 267.863 85.0862 271.452 90.3988 274.037C91.2603 274.468 91.6911 274.898 91.6911 275.473C91.6911 276.191 91.2603 276.621 90.1117 276.621H75.0354C74.1739 276.621 73.7431 277.052 73.7431 277.626C73.7431 278.057 74.0303 278.488 74.461 278.919C77.7635 282.078 83.3632 285.236 90.5424 288.395C100.306 292.416 110.07 295 121.126 295C142.089 295 151.278 279.35 151.278 267.001ZM123.854 285.954C113.659 285.954 105.044 277.626 105.044 267.001C105.044 256.807 113.516 248.479 123.854 248.479C134.479 248.479 142.807 256.807 142.807 267.001C142.807 277.339 134.479 285.954 123.854 285.954Z" fill="white"/>
</svg>
