<svg width="533" height="533" viewBox="0 0 533 533" fill="none" xmlns="http://www.w3.org/2000/svg">
<rect width="533" height="533" rx="140" fill="#0F295F"/>
<g clip-path="url(#clip0_1466_424)">
<path d="M178.46 305.089L165.068 309.981L164.348 349.822L210.708 332.886C194.808 327.546 183.196 318.148 178.46 305.089Z" fill="#FDBD39"/>
<path d="M185.467 262.95L139 279.925L165.066 309.981L178.458 305.089C173.736 292.068 176.648 277.349 185.467 262.95Z" fill="#F69833"/>
<path d="M263.663 205.462C204.492 227.078 166.345 271.682 178.459 305.089L392.736 226.81C380.622 193.403 322.834 183.845 263.663 205.46" fill="#FECF33"/>
<path d="M307.531 326.438C366.701 304.822 404.921 260.415 392.734 226.811L178.457 305.089C190.643 338.693 248.36 348.053 307.531 326.438Z" fill="#EE6723"/>
<path d="M392.734 226.81L178.457 305.09C182.653 316.66 198.653 322.36 221.104 322.36C242.991 322.36 271.009 316.947 300.219 306.276C359.39 284.66 401.021 249.662 392.734 226.812" fill="#F69833"/>
<path d="M350.088 209.54C328.2 209.54 300.182 214.954 270.972 225.624C211.802 247.24 170.171 282.238 178.457 305.089L392.734 226.81C388.539 215.24 372.538 209.54 350.088 209.54Z" fill="#FDBD39"/>
<path d="M338.255 351.932H338.253C331.949 351.932 322.648 346.237 310.609 335.006C296.365 321.719 280.049 302.258 264.667 280.207C249.284 258.157 236.644 236.113 229.075 218.135C220.828 198.542 219.652 186.495 225.58 182.329C226.88 181.416 228.447 180.954 230.236 180.954C235.058 180.954 244.453 184.544 261.826 201.647L262.206 202.021L262.154 202.552C262.035 203.779 261.926 205.008 261.828 206.237L261.635 208.653L259.93 206.936C241.212 188.078 232.972 186.042 230.298 186.042C229.535 186.042 228.928 186.197 228.493 186.503C225.921 188.31 225.756 197.158 233.751 216.151C241.185 233.809 253.641 255.521 268.825 277.284C284.01 299.05 300.075 318.224 314.065 331.274C329.149 345.345 335.947 346.864 338.169 346.864C338.936 346.864 339.56 346.7 340.022 346.374C342.735 344.469 342.738 334.99 333.822 314.547L333.412 313.609L334.309 313.119C335.205 312.628 336.072 312.145 336.884 311.683L337.958 311.073L338.452 312.206C344.774 326.691 350.684 345.101 342.935 350.549C341.629 351.466 340.055 351.932 338.255 351.932ZM338.253 349.697H338.255L338.254 350.814L338.253 349.697Z" fill="#EE6723"/>
<path d="M308.967 325.827L308.877 326.94C307.381 345.45 303.442 367.704 293.172 368.604C292.966 368.623 292.752 368.632 292.537 368.632C285.561 368.632 278.96 358.636 272.92 338.922C267.204 320.271 262.77 295.229 260.432 268.409C258.094 241.594 258.129 216.159 260.53 196.791C263.149 175.685 268.131 164.662 275.34 164.03C275.554 164.01 275.775 164 275.993 164C281.054 164 288.682 169.73 296.49 196.424L291.392 197.408C288.785 188.488 285.943 181.233 283.122 176.248C280.513 171.637 277.976 169.098 275.979 169.098C275.913 169.098 275.847 169.1 275.782 169.105C272.657 169.38 268.106 176.96 265.568 197.42C263.21 216.442 263.181 241.495 265.488 267.965C267.797 294.439 272.159 319.107 277.772 337.425C280.285 345.628 283.042 352.389 285.745 356.977C288.237 361.207 290.649 363.537 292.535 363.537C292.601 363.537 292.665 363.534 292.73 363.529C295.72 363.267 301.355 355.379 303.726 327.625L308.967 325.827Z" fill="#EE6723"/>
</g>
<defs>
<clipPath id="clip0_1466_424">
<rect width="256" height="205" fill="white" transform="translate(139 164)"/>
</clipPath>
</defs>
</svg>
