<svg width="50" height="50" viewBox="0 0 50 50" fill="none" xmlns="http://www.w3.org/2000/svg">
<path d="M42.7096 8.33301H7.29297C5.56708 8.33301 4.16797 9.73212 4.16797 11.458V38.5413C4.16797 40.2672 5.56708 41.6663 7.29297 41.6663H42.7096C44.4355 41.6663 45.8346 40.2672 45.8346 38.5413V11.458C45.8346 9.73212 44.4355 8.33301 42.7096 8.33301Z" stroke="#B232D3" stroke-width="4.16667" stroke-linejoin="round"/>
<path d="M4.16797 11.458C4.16797 10.6292 4.49721 9.83435 5.08326 9.2483C5.66931 8.66225 6.46417 8.33301 7.29297 8.33301H42.7096C43.5384 8.33301 44.3333 8.66225 44.9193 9.2483C45.5054 9.83435 45.8346 10.6292 45.8346 11.458V20.833H4.16797V11.458Z" stroke="#B232D3" stroke-width="4.16667"/>
<path d="M8.33529 14.5827C8.33529 13.4321 9.26803 12.4993 10.4186 12.4993C11.5692 12.4993 12.502 13.4321 12.502 14.5827C12.502 15.7333 11.5692 16.666 10.4186 16.666C9.26803 16.666 8.33529 15.7333 8.33529 14.5827Z" fill="#B232D3"/>
<path d="M14.5853 14.5827C14.5853 13.4321 15.518 12.4993 16.6686 12.4993C17.8192 12.4993 18.752 13.4321 18.752 14.5827C18.752 15.7333 17.8192 16.666 16.6686 16.666C15.518 16.666 14.5853 15.7333 14.5853 14.5827Z" fill="#B232D3"/>
</svg>
