<svg width="20" height="20" viewBox="0 0 20 20" fill="none" xmlns="http://www.w3.org/2000/svg">
<path d="M15.8939 5.56383H13.5095C13.0879 5.56383 12.6836 5.39636 12.3855 5.09825C12.0874 4.80014 11.9199 4.39582 11.9199 3.97424V1.58984" stroke="#B232D3" stroke-width="1.5896" stroke-linecap="round" stroke-linejoin="round"/>
<path d="M7.1521 14.3066C6.73051 14.3066 6.32619 14.1391 6.02808 13.841C5.72997 13.5429 5.5625 13.1386 5.5625 12.717V3.17944C5.5625 2.75785 5.72997 2.35353 6.02808 2.05543C6.32619 1.75732 6.73051 1.58984 7.1521 1.58984H12.7157L15.8949 4.76903V12.717C15.8949 13.1386 15.7274 13.5429 15.4293 13.841C15.1312 14.1391 14.7269 14.3066 14.3053 14.3066H7.1521Z" stroke="#B232D3" stroke-width="1.5896" stroke-linecap="round" stroke-linejoin="round"/>
<path d="M2.38281 6.04004V16.2134C2.38281 16.5507 2.51679 16.8742 2.75528 17.1127C2.99376 17.3511 3.31722 17.4851 3.65449 17.4851H11.4435" stroke="#B232D3" stroke-width="1.5896" stroke-linecap="round" stroke-linejoin="round"/>
</svg>
