<svg width="26" height="26" viewBox="0 0 26 26" fill="none" xmlns="http://www.w3.org/2000/svg">
<path d="M20.0215 20.0205H5.26953V5.26855H20.0215M20.0215 3.16113H5.26953C4.71061 3.16113 4.17458 3.38316 3.77936 3.77838C3.38414 4.1736 3.16211 4.70963 3.16211 5.26855V20.0205C3.16211 20.5794 3.38414 21.1154 3.77936 21.5106C4.17458 21.9059 4.71061 22.1279 5.26953 22.1279H20.0215C20.5804 22.1279 21.1164 21.9059 21.5116 21.5106C21.9068 21.1154 22.1289 20.5794 22.1289 20.0205V5.26855C22.1289 4.70963 21.9068 4.1736 21.5116 3.77838C21.1164 3.38316 20.5804 3.16113 20.0215 3.16113ZM17.3872 17.1228C17.3872 15.5422 14.2261 14.7519 12.6455 14.7519C11.0649 14.7519 7.9038 15.5422 7.9038 17.1228V17.9131H17.3872M12.6455 12.9079C13.2743 12.9079 13.8773 12.6582 14.3219 12.2135C14.7666 11.7689 15.0163 11.1659 15.0163 10.5371C15.0163 9.90831 14.7666 9.30528 14.3219 8.86066C13.8773 8.41604 13.2743 8.16625 12.6455 8.16625C12.0167 8.16625 11.4137 8.41604 10.9691 8.86066C10.5244 9.30528 10.2746 9.90831 10.2746 10.5371C10.2746 11.1659 10.5244 11.7689 10.9691 12.2135C11.4137 12.6582 12.0167 12.9079 12.6455 12.9079Z" fill="#B232D3"/>
</svg>
