<svg width="31" height="30" viewBox="0 0 31 30" fill="none" xmlns="http://www.w3.org/2000/svg">
<path d="M8.28017 25.7957C6.83321 25.7957 5.66016 24.592 5.66016 23.1057V12.294C5.66016 11.4771 6.02251 10.7033 6.64282 10.1935L13.8494 4.27548C14.3098 3.89419 14.8889 3.68555 15.4867 3.68555C16.0846 3.68555 16.6637 3.89419 17.1241 4.27548L24.3294 10.1935C24.951 10.7033 25.3133 11.4771 25.3133 12.294V23.1057C25.3133 24.592 24.1403 25.7957 22.6933 25.7957H8.28017Z" stroke="#B232D3" stroke-width="1.84249" stroke-linecap="round" stroke-linejoin="round"/>
<path d="M12.416 25.7954V19.0397C12.416 18.3881 12.6748 17.7633 13.1356 17.3025C13.5963 16.8418 14.2211 16.583 14.8727 16.583H16.101C16.7525 16.583 17.3774 16.8418 17.8381 17.3025C18.2988 17.7633 18.5576 18.3881 18.5576 19.0397V25.7954" stroke="#B232D3" stroke-width="1.84249" stroke-linecap="round" stroke-linejoin="round"/>
</svg>
