<svg width="26" height="26" viewBox="0 0 26 26" fill="none" xmlns="http://www.w3.org/2000/svg">
<path d="M2.11914 3.74689C2.11914 2.84791 2.84791 2.11914 3.74689 2.11914H10.029C10.9279 2.11914 11.6567 2.84791 11.6567 3.74689V10.029C11.6567 10.9279 10.9279 11.6567 10.029 11.6567H3.74689C2.84791 11.6567 2.11914 10.9279 2.11914 10.029V3.74689ZM4.2386 4.2386V9.53725H9.53725V4.2386H4.2386ZM18.545 4.2386C17.8423 4.2386 17.1684 4.51773 16.6716 5.01457C16.1748 5.51142 15.8956 6.18528 15.8956 6.88793C15.8956 7.59057 16.1748 8.26444 16.6716 8.76128C17.1684 9.25813 17.8423 9.53725 18.545 9.53725C19.2476 9.53725 19.9215 9.25813 20.4183 8.76128C20.9152 8.26444 21.1943 7.59057 21.1943 6.88793C21.1943 6.18528 20.9152 5.51142 20.4183 5.01457C19.9215 4.51773 19.2476 4.2386 18.545 4.2386ZM13.7762 6.88793C13.7762 6.26168 13.8995 5.64157 14.1392 5.06299C14.3788 4.48442 14.7301 3.95871 15.1729 3.51589C15.6157 3.07306 16.1414 2.7218 16.72 2.48214C17.2986 2.24249 17.9187 2.11914 18.545 2.11914C19.1712 2.11914 19.7913 2.24249 20.3699 2.48214C20.9485 2.7218 21.4742 3.07306 21.917 3.51589C22.3598 3.95871 22.7111 4.48442 22.9507 5.06299C23.1904 5.64157 23.3137 6.26168 23.3137 6.88793C23.3137 8.15269 22.8113 9.36565 21.917 10.26C21.0227 11.1543 19.8097 11.6567 18.545 11.6567C17.2802 11.6567 16.0672 11.1543 15.1729 10.26C14.2786 9.36565 13.7762 8.15269 13.7762 6.88793ZM2.11914 15.4039C2.11914 14.5049 2.84791 13.7762 3.74689 13.7762H10.029C10.9279 13.7762 11.6567 14.5049 11.6567 15.4039V21.686C11.6567 22.585 10.9279 23.3137 10.029 23.3137H3.74689C2.84791 23.3137 2.11914 22.585 2.11914 21.686V15.4039ZM4.2386 15.8956V21.1943H9.53725V15.8956H4.2386ZM13.7762 15.4039C13.7762 14.5049 14.5049 13.7762 15.4039 13.7762H21.686C22.585 13.7762 23.3137 14.5049 23.3137 15.4039V21.686C23.3137 22.585 22.585 23.3137 21.686 23.3137H15.4039C14.5049 23.3137 13.7762 22.585 13.7762 21.686V15.4039ZM15.8956 15.8956V21.1943H21.1943V15.8956H15.8956Z" fill="#B232D3"/>
</svg>
