<svg width="31" height="31" viewBox="0 0 31 31" fill="none" xmlns="http://www.w3.org/2000/svg">
<path fill-rule="evenodd" clip-rule="evenodd" d="M8.09148 5.05812C8.09148 4.78984 8.19806 4.53254 8.38776 4.34284C8.57746 4.15313 8.83476 4.04656 9.10304 4.04656H21.2418C21.5101 4.04656 21.7673 4.15313 21.9571 4.34284C22.1468 4.53254 22.2533 4.78984 22.2533 5.05812V25.2893C22.2533 25.5576 22.1468 25.8149 21.9571 26.0046C21.7673 26.1943 21.5101 26.3009 21.2418 26.3009H9.10304C8.83476 26.3009 8.57746 26.1943 8.38776 26.0046C8.19806 25.8149 8.09148 25.5576 8.09148 25.2893V5.05812ZM9.10304 2.02344C8.29819 2.02344 7.52631 2.34316 6.9572 2.91228C6.38808 3.48139 6.06836 4.25327 6.06836 5.05812V25.2893C6.06836 26.0942 6.38808 26.8661 6.9572 27.4352C7.52631 28.0043 8.29819 28.324 9.10304 28.324H21.2418C22.0466 28.324 22.8185 28.0043 23.3876 27.4352C23.9567 26.8661 24.2765 26.0942 24.2765 25.2893V5.05812C24.2765 4.25327 23.9567 3.48139 23.3876 2.91228C22.8185 2.34316 22.0466 2.02344 21.2418 2.02344H9.10304ZM12.1377 23.5697C11.9499 23.5697 11.7698 23.6443 11.637 23.7771C11.5042 23.9099 11.4296 24.09 11.4296 24.2778C11.4296 24.4656 11.5042 24.6457 11.637 24.7785C11.7698 24.9113 11.9499 24.9859 12.1377 24.9859H18.2071C18.3949 24.9859 18.575 24.9113 18.7078 24.7785C18.8406 24.6457 18.9152 24.4656 18.9152 24.2778C18.9152 24.09 18.8406 23.9099 18.7078 23.7771C18.575 23.6443 18.3949 23.5697 18.2071 23.5697H12.1377Z" fill="#B232D3"/>
</svg>
